G04 #@! TF.GenerationSoftware,KiCad,Pcbnew,(5.1.4)-1*
G04 #@! TF.CreationDate,2019-10-17T19:09:16-07:00*
G04 #@! TF.ProjectId,amiga crossover,616d6967-6120-4637-926f-73736f766572,0.2*
G04 #@! TF.SameCoordinates,Original*
G04 #@! TF.FileFunction,Copper,L1,Top*
G04 #@! TF.FilePolarity,Positive*
%FSLAX46Y46*%
G04 Gerber Fmt 4.6, Leading zero omitted, Abs format (unit mm)*
G04 Created by KiCad (PCBNEW (5.1.4)-1) date 2019-10-17 19:09:16*
%MOMM*%
%LPD*%
G04 APERTURE LIST*
%ADD10O,2.800000X2.800000*%
%ADD11C,2.800000*%
%ADD12O,2.400000X2.400000*%
%ADD13C,2.400000*%
%ADD14C,2.600000*%
%ADD15C,3.000000*%
%ADD16C,3.800000*%
%ADD17C,5.000000*%
%ADD18C,3.500000*%
%ADD19C,5.000000*%
%ADD20C,1.000000*%
%ADD21C,3.000000*%
%ADD22C,0.254000*%
G04 APERTURE END LIST*
D10*
X218878000Y-122174000D03*
D11*
X166878000Y-122174000D03*
D12*
X149460000Y-83566000D03*
D13*
X124460000Y-83566000D03*
D10*
X114300000Y-76130000D03*
D11*
X114300000Y-24130000D03*
D14*
X129844800Y-103886000D03*
X111963200Y-113741200D03*
D15*
X147370800Y-45364400D03*
X130911600Y-45415200D03*
D16*
X187452000Y-88188800D03*
X187452000Y-105664000D03*
D17*
X198120000Y-66040000D03*
X198120000Y-76200000D03*
X198120000Y-50800000D03*
X198120000Y-40640000D03*
X111760000Y-93980000D03*
X111760000Y-83820000D03*
D12*
X170434000Y-24130000D03*
D13*
X170434000Y-80010000D03*
D12*
X183642000Y-24130000D03*
D13*
X183642000Y-80010000D03*
D12*
X157480000Y-24384000D03*
D13*
X157480000Y-80264000D03*
D18*
X128905000Y-50800000D03*
X149098000Y-50800000D03*
X205740000Y-38100000D03*
X205740000Y-53340000D03*
X205740000Y-63500000D03*
X205740000Y-78740000D03*
X106680000Y-81280000D03*
X106680000Y-96520000D03*
X192532000Y-86614000D03*
X192786000Y-106934000D03*
X156718000Y-96774000D03*
X142748000Y-107442000D03*
X128524000Y-117983000D03*
X111125000Y-122047000D03*
X142748000Y-119507000D03*
X157099000Y-130556000D03*
D19*
X151942800Y-24384000D02*
X130911600Y-45415200D01*
X157480000Y-24384000D02*
X151942800Y-24384000D01*
X130911600Y-40741600D02*
X114300000Y-24130000D01*
X130911600Y-45415200D02*
X130911600Y-40741600D01*
D20*
X129844800Y-103181200D02*
X129844800Y-103886000D01*
D19*
X166878000Y-122174000D02*
X166878000Y-110490000D01*
X166878000Y-110490000D02*
X156972000Y-110490000D01*
X171704000Y-105664000D02*
X166878000Y-110490000D01*
X187452000Y-105664000D02*
X171704000Y-105664000D01*
X129844800Y-103886000D02*
X134239000Y-103886000D01*
X134239000Y-103886000D02*
X139573000Y-98552000D01*
X145034000Y-98552000D02*
X156972000Y-110490000D01*
X139573000Y-98552000D02*
X145034000Y-98552000D01*
X148260001Y-95325999D02*
X145034000Y-98552000D01*
X148260001Y-84765999D02*
X148260001Y-95325999D01*
X149460000Y-83566000D02*
X148260001Y-84765999D01*
D21*
X183642000Y-80010000D02*
X177038000Y-86614000D01*
D19*
X177038000Y-86614000D02*
X177038000Y-94742000D01*
X218878000Y-122174000D02*
X214884000Y-122174000D01*
X214884000Y-122174000D02*
X202184000Y-109474000D01*
X202184000Y-109474000D02*
X202184000Y-101854000D01*
X195072000Y-94742000D02*
X177038000Y-94742000D01*
X202184000Y-101854000D02*
X195072000Y-94742000D01*
X113263199Y-112441201D02*
X113263199Y-107589801D01*
X111963200Y-113741200D02*
X113263199Y-112441201D01*
X124460000Y-96393000D02*
X124460000Y-83566000D01*
X113263199Y-107589801D02*
X124460000Y-96393000D01*
X124206000Y-83820000D02*
X124460000Y-83566000D01*
X111760000Y-83820000D02*
X124206000Y-83820000D01*
X114300000Y-76130000D02*
X114300000Y-83820000D01*
X170434000Y-24130000D02*
X183642000Y-24130000D01*
X198120000Y-50800000D02*
X198120000Y-66040000D01*
X183642000Y-24130000D02*
X183642000Y-50800000D01*
X198120000Y-50800000D02*
X183642000Y-50800000D01*
X194584467Y-76200000D02*
X198120000Y-76200000D01*
X187452000Y-83332467D02*
X194584467Y-76200000D01*
X187452000Y-88188800D02*
X187452000Y-83332467D01*
D22*
G36*
X168762146Y-24003000D02*
G01*
X170307000Y-24003000D01*
X170307000Y-23983000D01*
X170561000Y-23983000D01*
X170561000Y-24003000D01*
X172105854Y-24003000D01*
X172157734Y-23876000D01*
X181918266Y-23876000D01*
X181970146Y-24003000D01*
X183515000Y-24003000D01*
X183515000Y-23983000D01*
X183769000Y-23983000D01*
X183769000Y-24003000D01*
X185313854Y-24003000D01*
X185365734Y-23876000D01*
X192749812Y-23876000D01*
X193686829Y-24802549D01*
X193917773Y-45356490D01*
X193920492Y-45381237D01*
X193927986Y-45404979D01*
X193939968Y-45426802D01*
X193953502Y-45443381D01*
X194963768Y-46487338D01*
X194982751Y-46503445D01*
X195004513Y-46515540D01*
X195028215Y-46523157D01*
X195049440Y-46525897D01*
X200811297Y-46779782D01*
X201745325Y-47750606D01*
X201860666Y-69088506D01*
X200941125Y-70007333D01*
X155993265Y-69729507D01*
X155070531Y-68797932D01*
X155072392Y-68243148D01*
X196096457Y-68243148D01*
X196372627Y-68661118D01*
X196917557Y-68951649D01*
X197508696Y-69130287D01*
X198123328Y-69190168D01*
X198737831Y-69128990D01*
X199328592Y-68949103D01*
X199867373Y-68661118D01*
X200143543Y-68243148D01*
X198120000Y-66219605D01*
X196096457Y-68243148D01*
X155072392Y-68243148D01*
X155079774Y-66043328D01*
X194969832Y-66043328D01*
X195031010Y-66657831D01*
X195210897Y-67248592D01*
X195498882Y-67787373D01*
X195916852Y-68063543D01*
X197940395Y-66040000D01*
X198299605Y-66040000D01*
X200323148Y-68063543D01*
X200741118Y-67787373D01*
X201031649Y-67242443D01*
X201210287Y-66651304D01*
X201270168Y-66036672D01*
X201208990Y-65422169D01*
X201029103Y-64831408D01*
X200741118Y-64292627D01*
X200323148Y-64016457D01*
X198299605Y-66040000D01*
X197940395Y-66040000D01*
X195916852Y-64016457D01*
X195498882Y-64292627D01*
X195208351Y-64837557D01*
X195029713Y-65428696D01*
X194969832Y-66043328D01*
X155079774Y-66043328D01*
X155087178Y-63836852D01*
X196096457Y-63836852D01*
X198120000Y-65860395D01*
X200143543Y-63836852D01*
X199867373Y-63418882D01*
X199322443Y-63128351D01*
X198731304Y-62949713D01*
X198116672Y-62889832D01*
X197502169Y-62951010D01*
X196911408Y-63130897D01*
X196372627Y-63418882D01*
X196096457Y-63836852D01*
X155087178Y-63836852D01*
X155123532Y-53003148D01*
X196096457Y-53003148D01*
X196372627Y-53421118D01*
X196917557Y-53711649D01*
X197508696Y-53890287D01*
X198123328Y-53950168D01*
X198737831Y-53888990D01*
X199328592Y-53709103D01*
X199867373Y-53421118D01*
X200143543Y-53003148D01*
X198120000Y-50979605D01*
X196096457Y-53003148D01*
X155123532Y-53003148D01*
X155130914Y-50803328D01*
X194969832Y-50803328D01*
X195031010Y-51417831D01*
X195210897Y-52008592D01*
X195498882Y-52547373D01*
X195916852Y-52823543D01*
X197940395Y-50800000D01*
X198299605Y-50800000D01*
X200323148Y-52823543D01*
X200741118Y-52547373D01*
X201031649Y-52002443D01*
X201210287Y-51411304D01*
X201270168Y-50796672D01*
X201208990Y-50182169D01*
X201029103Y-49591408D01*
X200741118Y-49052627D01*
X200323148Y-48776457D01*
X198299605Y-50800000D01*
X197940395Y-50800000D01*
X195916852Y-48776457D01*
X195498882Y-49052627D01*
X195208351Y-49597557D01*
X195029713Y-50188696D01*
X194969832Y-50803328D01*
X155130914Y-50803328D01*
X155138318Y-48596852D01*
X196096457Y-48596852D01*
X198120000Y-50620395D01*
X200143543Y-48596852D01*
X199867373Y-48178882D01*
X199322443Y-47888351D01*
X198731304Y-47709713D01*
X198116672Y-47649832D01*
X197502169Y-47711010D01*
X196911408Y-47890897D01*
X196372627Y-48178882D01*
X196096457Y-48596852D01*
X155138318Y-48596852D01*
X155190555Y-33030559D01*
X155900999Y-31392825D01*
X163171520Y-24543784D01*
X163176504Y-24541806D01*
X168645801Y-24541806D01*
X168760500Y-24882754D01*
X168939511Y-25194774D01*
X169175954Y-25465875D01*
X169460743Y-25685639D01*
X169782934Y-25845621D01*
X170022195Y-25918195D01*
X170307000Y-25801432D01*
X170307000Y-24257000D01*
X170561000Y-24257000D01*
X170561000Y-25801432D01*
X170845805Y-25918195D01*
X171085066Y-25845621D01*
X171407257Y-25685639D01*
X171692046Y-25465875D01*
X171928489Y-25194774D01*
X172107500Y-24882754D01*
X172222199Y-24541806D01*
X181853801Y-24541806D01*
X181968500Y-24882754D01*
X182147511Y-25194774D01*
X182383954Y-25465875D01*
X182668743Y-25685639D01*
X182990934Y-25845621D01*
X183230195Y-25918195D01*
X183515000Y-25801432D01*
X183515000Y-24257000D01*
X183769000Y-24257000D01*
X183769000Y-25801432D01*
X184053805Y-25918195D01*
X184293066Y-25845621D01*
X184615257Y-25685639D01*
X184900046Y-25465875D01*
X185136489Y-25194774D01*
X185315500Y-24882754D01*
X185430199Y-24541806D01*
X185313854Y-24257000D01*
X183769000Y-24257000D01*
X183515000Y-24257000D01*
X181970146Y-24257000D01*
X181853801Y-24541806D01*
X172222199Y-24541806D01*
X172105854Y-24257000D01*
X170561000Y-24257000D01*
X170307000Y-24257000D01*
X168762146Y-24257000D01*
X168645801Y-24541806D01*
X163176504Y-24541806D01*
X164854279Y-23876000D01*
X168710266Y-23876000D01*
X168762146Y-24003000D01*
X168762146Y-24003000D01*
G37*
X168762146Y-24003000D02*
X170307000Y-24003000D01*
X170307000Y-23983000D01*
X170561000Y-23983000D01*
X170561000Y-24003000D01*
X172105854Y-24003000D01*
X172157734Y-23876000D01*
X181918266Y-23876000D01*
X181970146Y-24003000D01*
X183515000Y-24003000D01*
X183515000Y-23983000D01*
X183769000Y-23983000D01*
X183769000Y-24003000D01*
X185313854Y-24003000D01*
X185365734Y-23876000D01*
X192749812Y-23876000D01*
X193686829Y-24802549D01*
X193917773Y-45356490D01*
X193920492Y-45381237D01*
X193927986Y-45404979D01*
X193939968Y-45426802D01*
X193953502Y-45443381D01*
X194963768Y-46487338D01*
X194982751Y-46503445D01*
X195004513Y-46515540D01*
X195028215Y-46523157D01*
X195049440Y-46525897D01*
X200811297Y-46779782D01*
X201745325Y-47750606D01*
X201860666Y-69088506D01*
X200941125Y-70007333D01*
X155993265Y-69729507D01*
X155070531Y-68797932D01*
X155072392Y-68243148D01*
X196096457Y-68243148D01*
X196372627Y-68661118D01*
X196917557Y-68951649D01*
X197508696Y-69130287D01*
X198123328Y-69190168D01*
X198737831Y-69128990D01*
X199328592Y-68949103D01*
X199867373Y-68661118D01*
X200143543Y-68243148D01*
X198120000Y-66219605D01*
X196096457Y-68243148D01*
X155072392Y-68243148D01*
X155079774Y-66043328D01*
X194969832Y-66043328D01*
X195031010Y-66657831D01*
X195210897Y-67248592D01*
X195498882Y-67787373D01*
X195916852Y-68063543D01*
X197940395Y-66040000D01*
X198299605Y-66040000D01*
X200323148Y-68063543D01*
X200741118Y-67787373D01*
X201031649Y-67242443D01*
X201210287Y-66651304D01*
X201270168Y-66036672D01*
X201208990Y-65422169D01*
X201029103Y-64831408D01*
X200741118Y-64292627D01*
X200323148Y-64016457D01*
X198299605Y-66040000D01*
X197940395Y-66040000D01*
X195916852Y-64016457D01*
X195498882Y-64292627D01*
X195208351Y-64837557D01*
X195029713Y-65428696D01*
X194969832Y-66043328D01*
X155079774Y-66043328D01*
X155087178Y-63836852D01*
X196096457Y-63836852D01*
X198120000Y-65860395D01*
X200143543Y-63836852D01*
X199867373Y-63418882D01*
X199322443Y-63128351D01*
X198731304Y-62949713D01*
X198116672Y-62889832D01*
X197502169Y-62951010D01*
X196911408Y-63130897D01*
X196372627Y-63418882D01*
X196096457Y-63836852D01*
X155087178Y-63836852D01*
X155123532Y-53003148D01*
X196096457Y-53003148D01*
X196372627Y-53421118D01*
X196917557Y-53711649D01*
X197508696Y-53890287D01*
X198123328Y-53950168D01*
X198737831Y-53888990D01*
X199328592Y-53709103D01*
X199867373Y-53421118D01*
X200143543Y-53003148D01*
X198120000Y-50979605D01*
X196096457Y-53003148D01*
X155123532Y-53003148D01*
X155130914Y-50803328D01*
X194969832Y-50803328D01*
X195031010Y-51417831D01*
X195210897Y-52008592D01*
X195498882Y-52547373D01*
X195916852Y-52823543D01*
X197940395Y-50800000D01*
X198299605Y-50800000D01*
X200323148Y-52823543D01*
X200741118Y-52547373D01*
X201031649Y-52002443D01*
X201210287Y-51411304D01*
X201270168Y-50796672D01*
X201208990Y-50182169D01*
X201029103Y-49591408D01*
X200741118Y-49052627D01*
X200323148Y-48776457D01*
X198299605Y-50800000D01*
X197940395Y-50800000D01*
X195916852Y-48776457D01*
X195498882Y-49052627D01*
X195208351Y-49597557D01*
X195029713Y-50188696D01*
X194969832Y-50803328D01*
X155130914Y-50803328D01*
X155138318Y-48596852D01*
X196096457Y-48596852D01*
X198120000Y-50620395D01*
X200143543Y-48596852D01*
X199867373Y-48178882D01*
X199322443Y-47888351D01*
X198731304Y-47709713D01*
X198116672Y-47649832D01*
X197502169Y-47711010D01*
X196911408Y-47890897D01*
X196372627Y-48178882D01*
X196096457Y-48596852D01*
X155138318Y-48596852D01*
X155190555Y-33030559D01*
X155900999Y-31392825D01*
X163171520Y-24543784D01*
X163176504Y-24541806D01*
X168645801Y-24541806D01*
X168760500Y-24882754D01*
X168939511Y-25194774D01*
X169175954Y-25465875D01*
X169460743Y-25685639D01*
X169782934Y-25845621D01*
X170022195Y-25918195D01*
X170307000Y-25801432D01*
X170307000Y-24257000D01*
X170561000Y-24257000D01*
X170561000Y-25801432D01*
X170845805Y-25918195D01*
X171085066Y-25845621D01*
X171407257Y-25685639D01*
X171692046Y-25465875D01*
X171928489Y-25194774D01*
X172107500Y-24882754D01*
X172222199Y-24541806D01*
X181853801Y-24541806D01*
X181968500Y-24882754D01*
X182147511Y-25194774D01*
X182383954Y-25465875D01*
X182668743Y-25685639D01*
X182990934Y-25845621D01*
X183230195Y-25918195D01*
X183515000Y-25801432D01*
X183515000Y-24257000D01*
X183769000Y-24257000D01*
X183769000Y-25801432D01*
X184053805Y-25918195D01*
X184293066Y-25845621D01*
X184615257Y-25685639D01*
X184900046Y-25465875D01*
X185136489Y-25194774D01*
X185315500Y-24882754D01*
X185430199Y-24541806D01*
X185313854Y-24257000D01*
X183769000Y-24257000D01*
X183515000Y-24257000D01*
X181970146Y-24257000D01*
X181853801Y-24541806D01*
X172222199Y-24541806D01*
X172105854Y-24257000D01*
X170561000Y-24257000D01*
X170307000Y-24257000D01*
X168762146Y-24257000D01*
X168645801Y-24541806D01*
X163176504Y-24541806D01*
X164854279Y-23876000D01*
X168710266Y-23876000D01*
X168762146Y-24003000D01*
G36*
X128778000Y-73442606D02*
G01*
X128778000Y-85942394D01*
X127852394Y-86868000D01*
X112512445Y-86868000D01*
X112968592Y-86729103D01*
X113507373Y-86441118D01*
X113783543Y-86023148D01*
X111760000Y-83999605D01*
X109736457Y-86023148D01*
X110012627Y-86441118D01*
X110557557Y-86731649D01*
X111008762Y-86868000D01*
X110272606Y-86868000D01*
X109347000Y-85942394D01*
X109347000Y-85704885D01*
X109556852Y-85843543D01*
X111580395Y-83820000D01*
X111939605Y-83820000D01*
X113963148Y-85843543D01*
X114381118Y-85567373D01*
X114671649Y-85022443D01*
X114725579Y-84843980D01*
X123361626Y-84843980D01*
X123481514Y-85128836D01*
X123805210Y-85289699D01*
X124154069Y-85384322D01*
X124514684Y-85409067D01*
X124873198Y-85362985D01*
X125215833Y-85247846D01*
X125438486Y-85128836D01*
X125558374Y-84843980D01*
X124460000Y-83745605D01*
X123361626Y-84843980D01*
X114725579Y-84843980D01*
X114850287Y-84431304D01*
X114910168Y-83816672D01*
X114890657Y-83620684D01*
X122616933Y-83620684D01*
X122663015Y-83979198D01*
X122778154Y-84321833D01*
X122897164Y-84544486D01*
X123182020Y-84664374D01*
X124280395Y-83566000D01*
X124639605Y-83566000D01*
X125737980Y-84664374D01*
X126022836Y-84544486D01*
X126183699Y-84220790D01*
X126278322Y-83871931D01*
X126303067Y-83511316D01*
X126256985Y-83152802D01*
X126141846Y-82810167D01*
X126022836Y-82587514D01*
X125737980Y-82467626D01*
X124639605Y-83566000D01*
X124280395Y-83566000D01*
X123182020Y-82467626D01*
X122897164Y-82587514D01*
X122736301Y-82911210D01*
X122641678Y-83260069D01*
X122616933Y-83620684D01*
X114890657Y-83620684D01*
X114848990Y-83202169D01*
X114669103Y-82611408D01*
X114496249Y-82288020D01*
X123361626Y-82288020D01*
X124460000Y-83386395D01*
X125558374Y-82288020D01*
X125438486Y-82003164D01*
X125114790Y-81842301D01*
X124765931Y-81747678D01*
X124405316Y-81722933D01*
X124046802Y-81769015D01*
X123704167Y-81884154D01*
X123481514Y-82003164D01*
X123361626Y-82288020D01*
X114496249Y-82288020D01*
X114381118Y-82072627D01*
X113963148Y-81796457D01*
X111939605Y-83820000D01*
X111580395Y-83820000D01*
X109556852Y-81796457D01*
X109347000Y-81935115D01*
X109347000Y-81616852D01*
X109736457Y-81616852D01*
X111760000Y-83640395D01*
X113783543Y-81616852D01*
X113507373Y-81198882D01*
X112962443Y-80908351D01*
X112371304Y-80729713D01*
X111756672Y-80669832D01*
X111142169Y-80731010D01*
X110551408Y-80910897D01*
X110012627Y-81198882D01*
X109736457Y-81616852D01*
X109347000Y-81616852D01*
X109347000Y-76573161D01*
X112313836Y-76573161D01*
X112438456Y-76952127D01*
X112634614Y-77299499D01*
X112894772Y-77601928D01*
X113208932Y-77847792D01*
X113565021Y-78027642D01*
X113856840Y-78116160D01*
X114173000Y-78001947D01*
X114173000Y-76257000D01*
X114427000Y-76257000D01*
X114427000Y-78001947D01*
X114743160Y-78116160D01*
X115034979Y-78027642D01*
X115391068Y-77847792D01*
X115705228Y-77601928D01*
X115965386Y-77299499D01*
X116161544Y-76952127D01*
X116286164Y-76573161D01*
X116172287Y-76257000D01*
X114427000Y-76257000D01*
X114173000Y-76257000D01*
X112427713Y-76257000D01*
X112313836Y-76573161D01*
X109347000Y-76573161D01*
X109347000Y-75686839D01*
X112313836Y-75686839D01*
X112427713Y-76003000D01*
X114173000Y-76003000D01*
X114173000Y-74258053D01*
X114427000Y-74258053D01*
X114427000Y-76003000D01*
X116172287Y-76003000D01*
X116286164Y-75686839D01*
X116161544Y-75307873D01*
X115965386Y-74960501D01*
X115705228Y-74658072D01*
X115391068Y-74412208D01*
X115034979Y-74232358D01*
X114743160Y-74143840D01*
X114427000Y-74258053D01*
X114173000Y-74258053D01*
X113856840Y-74143840D01*
X113565021Y-74232358D01*
X113208932Y-74412208D01*
X112894772Y-74658072D01*
X112634614Y-74960501D01*
X112438456Y-75307873D01*
X112313836Y-75686839D01*
X109347000Y-75686839D01*
X109347000Y-73442606D01*
X110272606Y-72517000D01*
X127852394Y-72517000D01*
X128778000Y-73442606D01*
X128778000Y-73442606D01*
G37*
X128778000Y-73442606D02*
X128778000Y-85942394D01*
X127852394Y-86868000D01*
X112512445Y-86868000D01*
X112968592Y-86729103D01*
X113507373Y-86441118D01*
X113783543Y-86023148D01*
X111760000Y-83999605D01*
X109736457Y-86023148D01*
X110012627Y-86441118D01*
X110557557Y-86731649D01*
X111008762Y-86868000D01*
X110272606Y-86868000D01*
X109347000Y-85942394D01*
X109347000Y-85704885D01*
X109556852Y-85843543D01*
X111580395Y-83820000D01*
X111939605Y-83820000D01*
X113963148Y-85843543D01*
X114381118Y-85567373D01*
X114671649Y-85022443D01*
X114725579Y-84843980D01*
X123361626Y-84843980D01*
X123481514Y-85128836D01*
X123805210Y-85289699D01*
X124154069Y-85384322D01*
X124514684Y-85409067D01*
X124873198Y-85362985D01*
X125215833Y-85247846D01*
X125438486Y-85128836D01*
X125558374Y-84843980D01*
X124460000Y-83745605D01*
X123361626Y-84843980D01*
X114725579Y-84843980D01*
X114850287Y-84431304D01*
X114910168Y-83816672D01*
X114890657Y-83620684D01*
X122616933Y-83620684D01*
X122663015Y-83979198D01*
X122778154Y-84321833D01*
X122897164Y-84544486D01*
X123182020Y-84664374D01*
X124280395Y-83566000D01*
X124639605Y-83566000D01*
X125737980Y-84664374D01*
X126022836Y-84544486D01*
X126183699Y-84220790D01*
X126278322Y-83871931D01*
X126303067Y-83511316D01*
X126256985Y-83152802D01*
X126141846Y-82810167D01*
X126022836Y-82587514D01*
X125737980Y-82467626D01*
X124639605Y-83566000D01*
X124280395Y-83566000D01*
X123182020Y-82467626D01*
X122897164Y-82587514D01*
X122736301Y-82911210D01*
X122641678Y-83260069D01*
X122616933Y-83620684D01*
X114890657Y-83620684D01*
X114848990Y-83202169D01*
X114669103Y-82611408D01*
X114496249Y-82288020D01*
X123361626Y-82288020D01*
X124460000Y-83386395D01*
X125558374Y-82288020D01*
X125438486Y-82003164D01*
X125114790Y-81842301D01*
X124765931Y-81747678D01*
X124405316Y-81722933D01*
X124046802Y-81769015D01*
X123704167Y-81884154D01*
X123481514Y-82003164D01*
X123361626Y-82288020D01*
X114496249Y-82288020D01*
X114381118Y-82072627D01*
X113963148Y-81796457D01*
X111939605Y-83820000D01*
X111580395Y-83820000D01*
X109556852Y-81796457D01*
X109347000Y-81935115D01*
X109347000Y-81616852D01*
X109736457Y-81616852D01*
X111760000Y-83640395D01*
X113783543Y-81616852D01*
X113507373Y-81198882D01*
X112962443Y-80908351D01*
X112371304Y-80729713D01*
X111756672Y-80669832D01*
X111142169Y-80731010D01*
X110551408Y-80910897D01*
X110012627Y-81198882D01*
X109736457Y-81616852D01*
X109347000Y-81616852D01*
X109347000Y-76573161D01*
X112313836Y-76573161D01*
X112438456Y-76952127D01*
X112634614Y-77299499D01*
X112894772Y-77601928D01*
X113208932Y-77847792D01*
X113565021Y-78027642D01*
X113856840Y-78116160D01*
X114173000Y-78001947D01*
X114173000Y-76257000D01*
X114427000Y-76257000D01*
X114427000Y-78001947D01*
X114743160Y-78116160D01*
X115034979Y-78027642D01*
X115391068Y-77847792D01*
X115705228Y-77601928D01*
X115965386Y-77299499D01*
X116161544Y-76952127D01*
X116286164Y-76573161D01*
X116172287Y-76257000D01*
X114427000Y-76257000D01*
X114173000Y-76257000D01*
X112427713Y-76257000D01*
X112313836Y-76573161D01*
X109347000Y-76573161D01*
X109347000Y-75686839D01*
X112313836Y-75686839D01*
X112427713Y-76003000D01*
X114173000Y-76003000D01*
X114173000Y-74258053D01*
X114427000Y-74258053D01*
X114427000Y-76003000D01*
X116172287Y-76003000D01*
X116286164Y-75686839D01*
X116161544Y-75307873D01*
X115965386Y-74960501D01*
X115705228Y-74658072D01*
X115391068Y-74412208D01*
X115034979Y-74232358D01*
X114743160Y-74143840D01*
X114427000Y-74258053D01*
X114173000Y-74258053D01*
X113856840Y-74143840D01*
X113565021Y-74232358D01*
X113208932Y-74412208D01*
X112894772Y-74658072D01*
X112634614Y-74960501D01*
X112438456Y-75307873D01*
X112313836Y-75686839D01*
X109347000Y-75686839D01*
X109347000Y-73442606D01*
X110272606Y-72517000D01*
X127852394Y-72517000D01*
X128778000Y-73442606D01*
G36*
X148124125Y-84824046D02*
G01*
X148395226Y-85060489D01*
X148707246Y-85239500D01*
X149048194Y-85354199D01*
X149333000Y-85237854D01*
X149333000Y-84582000D01*
X149587000Y-84582000D01*
X149587000Y-85237854D01*
X149871806Y-85354199D01*
X150212754Y-85239500D01*
X150524774Y-85060489D01*
X150795875Y-84824046D01*
X150982655Y-84582000D01*
X171667394Y-84582000D01*
X172593000Y-85507606D01*
X172593000Y-98060000D01*
X172595440Y-98084776D01*
X172602667Y-98108601D01*
X172614403Y-98130557D01*
X172630197Y-98149803D01*
X173630197Y-99149803D01*
X173649443Y-99165597D01*
X173671399Y-99177333D01*
X173695224Y-99184560D01*
X173720000Y-99187000D01*
X188812394Y-99187000D01*
X189738000Y-100112606D01*
X189738000Y-104557852D01*
X189584867Y-104271362D01*
X189228349Y-104067256D01*
X187631605Y-105664000D01*
X189228349Y-107260744D01*
X189584867Y-107056638D01*
X189738000Y-106762688D01*
X189738000Y-131662394D01*
X188812394Y-132588000D01*
X158350784Y-132588000D01*
X158619349Y-132408550D01*
X158951550Y-132076349D01*
X159212560Y-131685721D01*
X159392346Y-131251679D01*
X159484000Y-130790902D01*
X159484000Y-130321098D01*
X159392346Y-129860321D01*
X159212560Y-129426279D01*
X158951550Y-129035651D01*
X158619349Y-128703450D01*
X158228721Y-128442440D01*
X157794679Y-128262654D01*
X157333902Y-128171000D01*
X156864098Y-128171000D01*
X156403321Y-128262654D01*
X155969279Y-128442440D01*
X155578651Y-128703450D01*
X155246450Y-129035651D01*
X154985440Y-129426279D01*
X154805654Y-129860321D01*
X154714000Y-130321098D01*
X154714000Y-130790902D01*
X154805654Y-131251679D01*
X154985440Y-131685721D01*
X155246450Y-132076349D01*
X155578651Y-132408550D01*
X155847216Y-132588000D01*
X119162606Y-132588000D01*
X118237000Y-131662394D01*
X118237000Y-123594447D01*
X165637158Y-123594447D01*
X165781135Y-123899770D01*
X166138892Y-124080597D01*
X166525053Y-124188155D01*
X166924777Y-124218310D01*
X167322704Y-124169904D01*
X167703540Y-124044795D01*
X167974865Y-123899770D01*
X168118842Y-123594447D01*
X166878000Y-122353605D01*
X165637158Y-123594447D01*
X118237000Y-123594447D01*
X118237000Y-122220777D01*
X164833690Y-122220777D01*
X164882096Y-122618704D01*
X165007205Y-122999540D01*
X165152230Y-123270865D01*
X165457553Y-123414842D01*
X166698395Y-122174000D01*
X167057605Y-122174000D01*
X168298447Y-123414842D01*
X168603770Y-123270865D01*
X168784597Y-122913108D01*
X168892155Y-122526947D01*
X168922310Y-122127223D01*
X168873904Y-121729296D01*
X168748795Y-121348460D01*
X168603770Y-121077135D01*
X168298447Y-120933158D01*
X167057605Y-122174000D01*
X166698395Y-122174000D01*
X165457553Y-120933158D01*
X165152230Y-121077135D01*
X164971403Y-121434892D01*
X164863845Y-121821053D01*
X164833690Y-122220777D01*
X118237000Y-122220777D01*
X118237000Y-117748098D01*
X126139000Y-117748098D01*
X126139000Y-118217902D01*
X126230654Y-118678679D01*
X126410440Y-119112721D01*
X126671450Y-119503349D01*
X127003651Y-119835550D01*
X127394279Y-120096560D01*
X127828321Y-120276346D01*
X128289098Y-120368000D01*
X128758902Y-120368000D01*
X129219679Y-120276346D01*
X129653721Y-120096560D01*
X130044349Y-119835550D01*
X130376550Y-119503349D01*
X130531067Y-119272098D01*
X140363000Y-119272098D01*
X140363000Y-119741902D01*
X140454654Y-120202679D01*
X140634440Y-120636721D01*
X140895450Y-121027349D01*
X141227651Y-121359550D01*
X141618279Y-121620560D01*
X142052321Y-121800346D01*
X142513098Y-121892000D01*
X142982902Y-121892000D01*
X143443679Y-121800346D01*
X143877721Y-121620560D01*
X144268349Y-121359550D01*
X144600550Y-121027349D01*
X144783495Y-120753553D01*
X165637158Y-120753553D01*
X166878000Y-121994395D01*
X168118842Y-120753553D01*
X167974865Y-120448230D01*
X167617108Y-120267403D01*
X167230947Y-120159845D01*
X166831223Y-120129690D01*
X166433296Y-120178096D01*
X166052460Y-120303205D01*
X165781135Y-120448230D01*
X165637158Y-120753553D01*
X144783495Y-120753553D01*
X144861560Y-120636721D01*
X145041346Y-120202679D01*
X145133000Y-119741902D01*
X145133000Y-119272098D01*
X145041346Y-118811321D01*
X144861560Y-118377279D01*
X144600550Y-117986651D01*
X144268349Y-117654450D01*
X143877721Y-117393440D01*
X143443679Y-117213654D01*
X142982902Y-117122000D01*
X142513098Y-117122000D01*
X142052321Y-117213654D01*
X141618279Y-117393440D01*
X141227651Y-117654450D01*
X140895450Y-117986651D01*
X140634440Y-118377279D01*
X140454654Y-118811321D01*
X140363000Y-119272098D01*
X130531067Y-119272098D01*
X130637560Y-119112721D01*
X130817346Y-118678679D01*
X130909000Y-118217902D01*
X130909000Y-117748098D01*
X130817346Y-117287321D01*
X130637560Y-116853279D01*
X130376550Y-116462651D01*
X130044349Y-116130450D01*
X129653721Y-115869440D01*
X129219679Y-115689654D01*
X128758902Y-115598000D01*
X128289098Y-115598000D01*
X127828321Y-115689654D01*
X127394279Y-115869440D01*
X127003651Y-116130450D01*
X126671450Y-116462651D01*
X126410440Y-116853279D01*
X126230654Y-117287321D01*
X126139000Y-117748098D01*
X118237000Y-117748098D01*
X118237000Y-110245263D01*
X118924772Y-108584834D01*
X120302508Y-107207098D01*
X140363000Y-107207098D01*
X140363000Y-107676902D01*
X140454654Y-108137679D01*
X140634440Y-108571721D01*
X140895450Y-108962349D01*
X141227651Y-109294550D01*
X141618279Y-109555560D01*
X142052321Y-109735346D01*
X142513098Y-109827000D01*
X142982902Y-109827000D01*
X143443679Y-109735346D01*
X143877721Y-109555560D01*
X144268349Y-109294550D01*
X144600550Y-108962349D01*
X144861560Y-108571721D01*
X145041346Y-108137679D01*
X145133000Y-107676902D01*
X145133000Y-107440349D01*
X185855256Y-107440349D01*
X186059362Y-107796867D01*
X186502223Y-108027575D01*
X186981583Y-108167452D01*
X187479021Y-108211123D01*
X187975422Y-108156909D01*
X188451707Y-108006894D01*
X188844638Y-107796867D01*
X189048744Y-107440349D01*
X187452000Y-105843605D01*
X185855256Y-107440349D01*
X145133000Y-107440349D01*
X145133000Y-107207098D01*
X145041346Y-106746321D01*
X144861560Y-106312279D01*
X144600550Y-105921651D01*
X144369920Y-105691021D01*
X184904877Y-105691021D01*
X184959091Y-106187422D01*
X185109106Y-106663707D01*
X185319133Y-107056638D01*
X185675651Y-107260744D01*
X187272395Y-105664000D01*
X185675651Y-104067256D01*
X185319133Y-104271362D01*
X185088425Y-104714223D01*
X184948548Y-105193583D01*
X184904877Y-105691021D01*
X144369920Y-105691021D01*
X144268349Y-105589450D01*
X143877721Y-105328440D01*
X143443679Y-105148654D01*
X142982902Y-105057000D01*
X142513098Y-105057000D01*
X142052321Y-105148654D01*
X141618279Y-105328440D01*
X141227651Y-105589450D01*
X140895450Y-105921651D01*
X140634440Y-106312279D01*
X140454654Y-106746321D01*
X140363000Y-107207098D01*
X120302508Y-107207098D01*
X122274382Y-105235224D01*
X128675181Y-105235224D01*
X128807117Y-105530312D01*
X129147845Y-105701159D01*
X129515357Y-105802250D01*
X129895529Y-105829701D01*
X130273751Y-105782457D01*
X130635490Y-105662333D01*
X130882483Y-105530312D01*
X131014419Y-105235224D01*
X129844800Y-104065605D01*
X128675181Y-105235224D01*
X122274382Y-105235224D01*
X123572877Y-103936729D01*
X127901099Y-103936729D01*
X127948343Y-104314951D01*
X128068467Y-104676690D01*
X128200488Y-104923683D01*
X128495576Y-105055619D01*
X129665195Y-103886000D01*
X130024405Y-103886000D01*
X131194024Y-105055619D01*
X131489112Y-104923683D01*
X131659959Y-104582955D01*
X131761050Y-104215443D01*
X131784718Y-103887651D01*
X185855256Y-103887651D01*
X187452000Y-105484395D01*
X189048744Y-103887651D01*
X188844638Y-103531133D01*
X188401777Y-103300425D01*
X187922417Y-103160548D01*
X187424979Y-103116877D01*
X186928578Y-103171091D01*
X186452293Y-103321106D01*
X186059362Y-103531133D01*
X185855256Y-103887651D01*
X131784718Y-103887651D01*
X131788501Y-103835271D01*
X131741257Y-103457049D01*
X131621133Y-103095310D01*
X131489112Y-102848317D01*
X131194024Y-102716381D01*
X130024405Y-103886000D01*
X129665195Y-103886000D01*
X128495576Y-102716381D01*
X128200488Y-102848317D01*
X128029641Y-103189045D01*
X127928550Y-103556557D01*
X127901099Y-103936729D01*
X123572877Y-103936729D01*
X124972830Y-102536776D01*
X128675181Y-102536776D01*
X129844800Y-103706395D01*
X131014419Y-102536776D01*
X130882483Y-102241688D01*
X130541755Y-102070841D01*
X130174243Y-101969750D01*
X129794071Y-101942299D01*
X129415849Y-101989543D01*
X129054110Y-102109667D01*
X128807117Y-102241688D01*
X128675181Y-102536776D01*
X124972830Y-102536776D01*
X128269834Y-99239772D01*
X129930263Y-98552000D01*
X134255000Y-98552000D01*
X134279776Y-98549560D01*
X134303601Y-98542333D01*
X136010708Y-97835226D01*
X136032664Y-97823490D01*
X136051910Y-97807696D01*
X137320508Y-96539098D01*
X154333000Y-96539098D01*
X154333000Y-97008902D01*
X154424654Y-97469679D01*
X154604440Y-97903721D01*
X154865450Y-98294349D01*
X155197651Y-98626550D01*
X155588279Y-98887560D01*
X156022321Y-99067346D01*
X156483098Y-99159000D01*
X156952902Y-99159000D01*
X157413679Y-99067346D01*
X157847721Y-98887560D01*
X158238349Y-98626550D01*
X158570550Y-98294349D01*
X158831560Y-97903721D01*
X159011346Y-97469679D01*
X159103000Y-97008902D01*
X159103000Y-96539098D01*
X159011346Y-96078321D01*
X158831560Y-95644279D01*
X158570550Y-95253651D01*
X158238349Y-94921450D01*
X157847721Y-94660440D01*
X157413679Y-94480654D01*
X156952902Y-94389000D01*
X156483098Y-94389000D01*
X156022321Y-94480654D01*
X155588279Y-94660440D01*
X155197651Y-94921450D01*
X154865450Y-95253651D01*
X154604440Y-95644279D01*
X154424654Y-96078321D01*
X154333000Y-96539098D01*
X137320508Y-96539098D01*
X142892696Y-90966910D01*
X142908490Y-90947664D01*
X142920226Y-90925708D01*
X143627333Y-89218601D01*
X143634560Y-89194776D01*
X143637000Y-89170000D01*
X143637000Y-84825106D01*
X143880106Y-84582000D01*
X147937345Y-84582000D01*
X148124125Y-84824046D01*
X148124125Y-84824046D01*
G37*
X148124125Y-84824046D02*
X148395226Y-85060489D01*
X148707246Y-85239500D01*
X149048194Y-85354199D01*
X149333000Y-85237854D01*
X149333000Y-84582000D01*
X149587000Y-84582000D01*
X149587000Y-85237854D01*
X149871806Y-85354199D01*
X150212754Y-85239500D01*
X150524774Y-85060489D01*
X150795875Y-84824046D01*
X150982655Y-84582000D01*
X171667394Y-84582000D01*
X172593000Y-85507606D01*
X172593000Y-98060000D01*
X172595440Y-98084776D01*
X172602667Y-98108601D01*
X172614403Y-98130557D01*
X172630197Y-98149803D01*
X173630197Y-99149803D01*
X173649443Y-99165597D01*
X173671399Y-99177333D01*
X173695224Y-99184560D01*
X173720000Y-99187000D01*
X188812394Y-99187000D01*
X189738000Y-100112606D01*
X189738000Y-104557852D01*
X189584867Y-104271362D01*
X189228349Y-104067256D01*
X187631605Y-105664000D01*
X189228349Y-107260744D01*
X189584867Y-107056638D01*
X189738000Y-106762688D01*
X189738000Y-131662394D01*
X188812394Y-132588000D01*
X158350784Y-132588000D01*
X158619349Y-132408550D01*
X158951550Y-132076349D01*
X159212560Y-131685721D01*
X159392346Y-131251679D01*
X159484000Y-130790902D01*
X159484000Y-130321098D01*
X159392346Y-129860321D01*
X159212560Y-129426279D01*
X158951550Y-129035651D01*
X158619349Y-128703450D01*
X158228721Y-128442440D01*
X157794679Y-128262654D01*
X157333902Y-128171000D01*
X156864098Y-128171000D01*
X156403321Y-128262654D01*
X155969279Y-128442440D01*
X155578651Y-128703450D01*
X155246450Y-129035651D01*
X154985440Y-129426279D01*
X154805654Y-129860321D01*
X154714000Y-130321098D01*
X154714000Y-130790902D01*
X154805654Y-131251679D01*
X154985440Y-131685721D01*
X155246450Y-132076349D01*
X155578651Y-132408550D01*
X155847216Y-132588000D01*
X119162606Y-132588000D01*
X118237000Y-131662394D01*
X118237000Y-123594447D01*
X165637158Y-123594447D01*
X165781135Y-123899770D01*
X166138892Y-124080597D01*
X166525053Y-124188155D01*
X166924777Y-124218310D01*
X167322704Y-124169904D01*
X167703540Y-124044795D01*
X167974865Y-123899770D01*
X168118842Y-123594447D01*
X166878000Y-122353605D01*
X165637158Y-123594447D01*
X118237000Y-123594447D01*
X118237000Y-122220777D01*
X164833690Y-122220777D01*
X164882096Y-122618704D01*
X165007205Y-122999540D01*
X165152230Y-123270865D01*
X165457553Y-123414842D01*
X166698395Y-122174000D01*
X167057605Y-122174000D01*
X168298447Y-123414842D01*
X168603770Y-123270865D01*
X168784597Y-122913108D01*
X168892155Y-122526947D01*
X168922310Y-122127223D01*
X168873904Y-121729296D01*
X168748795Y-121348460D01*
X168603770Y-121077135D01*
X168298447Y-120933158D01*
X167057605Y-122174000D01*
X166698395Y-122174000D01*
X165457553Y-120933158D01*
X165152230Y-121077135D01*
X164971403Y-121434892D01*
X164863845Y-121821053D01*
X164833690Y-122220777D01*
X118237000Y-122220777D01*
X118237000Y-117748098D01*
X126139000Y-117748098D01*
X126139000Y-118217902D01*
X126230654Y-118678679D01*
X126410440Y-119112721D01*
X126671450Y-119503349D01*
X127003651Y-119835550D01*
X127394279Y-120096560D01*
X127828321Y-120276346D01*
X128289098Y-120368000D01*
X128758902Y-120368000D01*
X129219679Y-120276346D01*
X129653721Y-120096560D01*
X130044349Y-119835550D01*
X130376550Y-119503349D01*
X130531067Y-119272098D01*
X140363000Y-119272098D01*
X140363000Y-119741902D01*
X140454654Y-120202679D01*
X140634440Y-120636721D01*
X140895450Y-121027349D01*
X141227651Y-121359550D01*
X141618279Y-121620560D01*
X142052321Y-121800346D01*
X142513098Y-121892000D01*
X142982902Y-121892000D01*
X143443679Y-121800346D01*
X143877721Y-121620560D01*
X144268349Y-121359550D01*
X144600550Y-121027349D01*
X144783495Y-120753553D01*
X165637158Y-120753553D01*
X166878000Y-121994395D01*
X168118842Y-120753553D01*
X167974865Y-120448230D01*
X167617108Y-120267403D01*
X167230947Y-120159845D01*
X166831223Y-120129690D01*
X166433296Y-120178096D01*
X166052460Y-120303205D01*
X165781135Y-120448230D01*
X165637158Y-120753553D01*
X144783495Y-120753553D01*
X144861560Y-120636721D01*
X145041346Y-120202679D01*
X145133000Y-119741902D01*
X145133000Y-119272098D01*
X145041346Y-118811321D01*
X144861560Y-118377279D01*
X144600550Y-117986651D01*
X144268349Y-117654450D01*
X143877721Y-117393440D01*
X143443679Y-117213654D01*
X142982902Y-117122000D01*
X142513098Y-117122000D01*
X142052321Y-117213654D01*
X141618279Y-117393440D01*
X141227651Y-117654450D01*
X140895450Y-117986651D01*
X140634440Y-118377279D01*
X140454654Y-118811321D01*
X140363000Y-119272098D01*
X130531067Y-119272098D01*
X130637560Y-119112721D01*
X130817346Y-118678679D01*
X130909000Y-118217902D01*
X130909000Y-117748098D01*
X130817346Y-117287321D01*
X130637560Y-116853279D01*
X130376550Y-116462651D01*
X130044349Y-116130450D01*
X129653721Y-115869440D01*
X129219679Y-115689654D01*
X128758902Y-115598000D01*
X128289098Y-115598000D01*
X127828321Y-115689654D01*
X127394279Y-115869440D01*
X127003651Y-116130450D01*
X126671450Y-116462651D01*
X126410440Y-116853279D01*
X126230654Y-117287321D01*
X126139000Y-117748098D01*
X118237000Y-117748098D01*
X118237000Y-110245263D01*
X118924772Y-108584834D01*
X120302508Y-107207098D01*
X140363000Y-107207098D01*
X140363000Y-107676902D01*
X140454654Y-108137679D01*
X140634440Y-108571721D01*
X140895450Y-108962349D01*
X141227651Y-109294550D01*
X141618279Y-109555560D01*
X142052321Y-109735346D01*
X142513098Y-109827000D01*
X142982902Y-109827000D01*
X143443679Y-109735346D01*
X143877721Y-109555560D01*
X144268349Y-109294550D01*
X144600550Y-108962349D01*
X144861560Y-108571721D01*
X145041346Y-108137679D01*
X145133000Y-107676902D01*
X145133000Y-107440349D01*
X185855256Y-107440349D01*
X186059362Y-107796867D01*
X186502223Y-108027575D01*
X186981583Y-108167452D01*
X187479021Y-108211123D01*
X187975422Y-108156909D01*
X188451707Y-108006894D01*
X188844638Y-107796867D01*
X189048744Y-107440349D01*
X187452000Y-105843605D01*
X185855256Y-107440349D01*
X145133000Y-107440349D01*
X145133000Y-107207098D01*
X145041346Y-106746321D01*
X144861560Y-106312279D01*
X144600550Y-105921651D01*
X144369920Y-105691021D01*
X184904877Y-105691021D01*
X184959091Y-106187422D01*
X185109106Y-106663707D01*
X185319133Y-107056638D01*
X185675651Y-107260744D01*
X187272395Y-105664000D01*
X185675651Y-104067256D01*
X185319133Y-104271362D01*
X185088425Y-104714223D01*
X184948548Y-105193583D01*
X184904877Y-105691021D01*
X144369920Y-105691021D01*
X144268349Y-105589450D01*
X143877721Y-105328440D01*
X143443679Y-105148654D01*
X142982902Y-105057000D01*
X142513098Y-105057000D01*
X142052321Y-105148654D01*
X141618279Y-105328440D01*
X141227651Y-105589450D01*
X140895450Y-105921651D01*
X140634440Y-106312279D01*
X140454654Y-106746321D01*
X140363000Y-107207098D01*
X120302508Y-107207098D01*
X122274382Y-105235224D01*
X128675181Y-105235224D01*
X128807117Y-105530312D01*
X129147845Y-105701159D01*
X129515357Y-105802250D01*
X129895529Y-105829701D01*
X130273751Y-105782457D01*
X130635490Y-105662333D01*
X130882483Y-105530312D01*
X131014419Y-105235224D01*
X129844800Y-104065605D01*
X128675181Y-105235224D01*
X122274382Y-105235224D01*
X123572877Y-103936729D01*
X127901099Y-103936729D01*
X127948343Y-104314951D01*
X128068467Y-104676690D01*
X128200488Y-104923683D01*
X128495576Y-105055619D01*
X129665195Y-103886000D01*
X130024405Y-103886000D01*
X131194024Y-105055619D01*
X131489112Y-104923683D01*
X131659959Y-104582955D01*
X131761050Y-104215443D01*
X131784718Y-103887651D01*
X185855256Y-103887651D01*
X187452000Y-105484395D01*
X189048744Y-103887651D01*
X188844638Y-103531133D01*
X188401777Y-103300425D01*
X187922417Y-103160548D01*
X187424979Y-103116877D01*
X186928578Y-103171091D01*
X186452293Y-103321106D01*
X186059362Y-103531133D01*
X185855256Y-103887651D01*
X131784718Y-103887651D01*
X131788501Y-103835271D01*
X131741257Y-103457049D01*
X131621133Y-103095310D01*
X131489112Y-102848317D01*
X131194024Y-102716381D01*
X130024405Y-103886000D01*
X129665195Y-103886000D01*
X128495576Y-102716381D01*
X128200488Y-102848317D01*
X128029641Y-103189045D01*
X127928550Y-103556557D01*
X127901099Y-103936729D01*
X123572877Y-103936729D01*
X124972830Y-102536776D01*
X128675181Y-102536776D01*
X129844800Y-103706395D01*
X131014419Y-102536776D01*
X130882483Y-102241688D01*
X130541755Y-102070841D01*
X130174243Y-101969750D01*
X129794071Y-101942299D01*
X129415849Y-101989543D01*
X129054110Y-102109667D01*
X128807117Y-102241688D01*
X128675181Y-102536776D01*
X124972830Y-102536776D01*
X128269834Y-99239772D01*
X129930263Y-98552000D01*
X134255000Y-98552000D01*
X134279776Y-98549560D01*
X134303601Y-98542333D01*
X136010708Y-97835226D01*
X136032664Y-97823490D01*
X136051910Y-97807696D01*
X137320508Y-96539098D01*
X154333000Y-96539098D01*
X154333000Y-97008902D01*
X154424654Y-97469679D01*
X154604440Y-97903721D01*
X154865450Y-98294349D01*
X155197651Y-98626550D01*
X155588279Y-98887560D01*
X156022321Y-99067346D01*
X156483098Y-99159000D01*
X156952902Y-99159000D01*
X157413679Y-99067346D01*
X157847721Y-98887560D01*
X158238349Y-98626550D01*
X158570550Y-98294349D01*
X158831560Y-97903721D01*
X159011346Y-97469679D01*
X159103000Y-97008902D01*
X159103000Y-96539098D01*
X159011346Y-96078321D01*
X158831560Y-95644279D01*
X158570550Y-95253651D01*
X158238349Y-94921450D01*
X157847721Y-94660440D01*
X157413679Y-94480654D01*
X156952902Y-94389000D01*
X156483098Y-94389000D01*
X156022321Y-94480654D01*
X155588279Y-94660440D01*
X155197651Y-94921450D01*
X154865450Y-95253651D01*
X154604440Y-95644279D01*
X154424654Y-96078321D01*
X154333000Y-96539098D01*
X137320508Y-96539098D01*
X142892696Y-90966910D01*
X142908490Y-90947664D01*
X142920226Y-90925708D01*
X143627333Y-89218601D01*
X143634560Y-89194776D01*
X143637000Y-89170000D01*
X143637000Y-84825106D01*
X143880106Y-84582000D01*
X147937345Y-84582000D01*
X148124125Y-84824046D01*
G36*
X162973086Y-22267308D02*
G01*
X144780166Y-40460228D01*
X143119737Y-41148000D01*
X136890000Y-41148000D01*
X136865224Y-41150440D01*
X136841399Y-41157667D01*
X136819443Y-41169403D01*
X136800197Y-41185197D01*
X135800197Y-42185197D01*
X135784403Y-42204443D01*
X135772667Y-42226399D01*
X135765440Y-42250224D01*
X135763000Y-42275000D01*
X135763000Y-47889894D01*
X135519894Y-48133000D01*
X112177606Y-48133000D01*
X111252000Y-47207394D01*
X111252000Y-46906853D01*
X129599552Y-46906853D01*
X129755562Y-47222414D01*
X130130345Y-47413220D01*
X130535151Y-47527244D01*
X130954424Y-47560102D01*
X131372051Y-47510534D01*
X131771983Y-47380443D01*
X132067638Y-47222414D01*
X132223648Y-46906853D01*
X130911600Y-45594805D01*
X129599552Y-46906853D01*
X111252000Y-46906853D01*
X111252000Y-45458024D01*
X128766698Y-45458024D01*
X128816266Y-45875651D01*
X128946357Y-46275583D01*
X129104386Y-46571238D01*
X129419947Y-46727248D01*
X130731995Y-45415200D01*
X131091205Y-45415200D01*
X132403253Y-46727248D01*
X132718814Y-46571238D01*
X132909620Y-46196455D01*
X133023644Y-45791649D01*
X133056502Y-45372376D01*
X133006934Y-44954749D01*
X132876843Y-44554817D01*
X132718814Y-44259162D01*
X132403253Y-44103152D01*
X131091205Y-45415200D01*
X130731995Y-45415200D01*
X129419947Y-44103152D01*
X129104386Y-44259162D01*
X128913580Y-44633945D01*
X128799556Y-45038751D01*
X128766698Y-45458024D01*
X111252000Y-45458024D01*
X111252000Y-43923547D01*
X129599552Y-43923547D01*
X130911600Y-45235595D01*
X132223648Y-43923547D01*
X132067638Y-43607986D01*
X131692855Y-43417180D01*
X131288049Y-43303156D01*
X130868776Y-43270298D01*
X130451149Y-43319866D01*
X130051217Y-43449957D01*
X129755562Y-43607986D01*
X129599552Y-43923547D01*
X111252000Y-43923547D01*
X111252000Y-25550447D01*
X113059158Y-25550447D01*
X113203135Y-25855770D01*
X113560892Y-26036597D01*
X113947053Y-26144155D01*
X114346777Y-26174310D01*
X114744704Y-26125904D01*
X115125540Y-26000795D01*
X115396865Y-25855770D01*
X115540842Y-25550447D01*
X114300000Y-24309605D01*
X113059158Y-25550447D01*
X111252000Y-25550447D01*
X111252000Y-24176777D01*
X112255690Y-24176777D01*
X112304096Y-24574704D01*
X112429205Y-24955540D01*
X112574230Y-25226865D01*
X112879553Y-25370842D01*
X114120395Y-24130000D01*
X114479605Y-24130000D01*
X115720447Y-25370842D01*
X116025770Y-25226865D01*
X116049522Y-25179872D01*
X128321000Y-25179872D01*
X128321000Y-25620128D01*
X128406890Y-26051925D01*
X128575369Y-26458669D01*
X128819962Y-26824729D01*
X129131271Y-27136038D01*
X129497331Y-27380631D01*
X129904075Y-27549110D01*
X130335872Y-27635000D01*
X130776128Y-27635000D01*
X131207925Y-27549110D01*
X131614669Y-27380631D01*
X131980729Y-27136038D01*
X132292038Y-26824729D01*
X132536631Y-26458669D01*
X132705110Y-26051925D01*
X132791000Y-25620128D01*
X132791000Y-25179872D01*
X132714605Y-24795806D01*
X155691801Y-24795806D01*
X155806500Y-25136754D01*
X155985511Y-25448774D01*
X156221954Y-25719875D01*
X156506743Y-25939639D01*
X156828934Y-26099621D01*
X157068195Y-26172195D01*
X157353000Y-26055432D01*
X157353000Y-24511000D01*
X157607000Y-24511000D01*
X157607000Y-26055432D01*
X157891805Y-26172195D01*
X158131066Y-26099621D01*
X158453257Y-25939639D01*
X158738046Y-25719875D01*
X158974489Y-25448774D01*
X159153500Y-25136754D01*
X159268199Y-24795806D01*
X159151854Y-24511000D01*
X157607000Y-24511000D01*
X157353000Y-24511000D01*
X155808146Y-24511000D01*
X155691801Y-24795806D01*
X132714605Y-24795806D01*
X132705110Y-24748075D01*
X132536631Y-24341331D01*
X132292038Y-23975271D01*
X132288961Y-23972194D01*
X155691801Y-23972194D01*
X155808146Y-24257000D01*
X157353000Y-24257000D01*
X157353000Y-22712568D01*
X157607000Y-22712568D01*
X157607000Y-24257000D01*
X159151854Y-24257000D01*
X159268199Y-23972194D01*
X159153500Y-23631246D01*
X158974489Y-23319226D01*
X158738046Y-23048125D01*
X158453257Y-22828361D01*
X158131066Y-22668379D01*
X157891805Y-22595805D01*
X157607000Y-22712568D01*
X157353000Y-22712568D01*
X157068195Y-22595805D01*
X156828934Y-22668379D01*
X156506743Y-22828361D01*
X156221954Y-23048125D01*
X155985511Y-23319226D01*
X155806500Y-23631246D01*
X155691801Y-23972194D01*
X132288961Y-23972194D01*
X131980729Y-23663962D01*
X131614669Y-23419369D01*
X131207925Y-23250890D01*
X130776128Y-23165000D01*
X130335872Y-23165000D01*
X129904075Y-23250890D01*
X129497331Y-23419369D01*
X129131271Y-23663962D01*
X128819962Y-23975271D01*
X128575369Y-24341331D01*
X128406890Y-24748075D01*
X128321000Y-25179872D01*
X116049522Y-25179872D01*
X116206597Y-24869108D01*
X116314155Y-24482947D01*
X116344310Y-24083223D01*
X116295904Y-23685296D01*
X116170795Y-23304460D01*
X116025770Y-23033135D01*
X115720447Y-22889158D01*
X114479605Y-24130000D01*
X114120395Y-24130000D01*
X112879553Y-22889158D01*
X112574230Y-23033135D01*
X112393403Y-23390892D01*
X112285845Y-23777053D01*
X112255690Y-24176777D01*
X111252000Y-24176777D01*
X111252000Y-22709553D01*
X113059158Y-22709553D01*
X114300000Y-23950395D01*
X115540842Y-22709553D01*
X115396865Y-22404230D01*
X115039108Y-22223403D01*
X114652947Y-22115845D01*
X114253223Y-22085690D01*
X113855296Y-22134096D01*
X113474460Y-22259205D01*
X113203135Y-22404230D01*
X113059158Y-22709553D01*
X111252000Y-22709553D01*
X111252000Y-22642606D01*
X112025606Y-21869000D01*
X162808101Y-21869000D01*
X162973086Y-22267308D01*
X162973086Y-22267308D01*
G37*
X162973086Y-22267308D02*
X144780166Y-40460228D01*
X143119737Y-41148000D01*
X136890000Y-41148000D01*
X136865224Y-41150440D01*
X136841399Y-41157667D01*
X136819443Y-41169403D01*
X136800197Y-41185197D01*
X135800197Y-42185197D01*
X135784403Y-42204443D01*
X135772667Y-42226399D01*
X135765440Y-42250224D01*
X135763000Y-42275000D01*
X135763000Y-47889894D01*
X135519894Y-48133000D01*
X112177606Y-48133000D01*
X111252000Y-47207394D01*
X111252000Y-46906853D01*
X129599552Y-46906853D01*
X129755562Y-47222414D01*
X130130345Y-47413220D01*
X130535151Y-47527244D01*
X130954424Y-47560102D01*
X131372051Y-47510534D01*
X131771983Y-47380443D01*
X132067638Y-47222414D01*
X132223648Y-46906853D01*
X130911600Y-45594805D01*
X129599552Y-46906853D01*
X111252000Y-46906853D01*
X111252000Y-45458024D01*
X128766698Y-45458024D01*
X128816266Y-45875651D01*
X128946357Y-46275583D01*
X129104386Y-46571238D01*
X129419947Y-46727248D01*
X130731995Y-45415200D01*
X131091205Y-45415200D01*
X132403253Y-46727248D01*
X132718814Y-46571238D01*
X132909620Y-46196455D01*
X133023644Y-45791649D01*
X133056502Y-45372376D01*
X133006934Y-44954749D01*
X132876843Y-44554817D01*
X132718814Y-44259162D01*
X132403253Y-44103152D01*
X131091205Y-45415200D01*
X130731995Y-45415200D01*
X129419947Y-44103152D01*
X129104386Y-44259162D01*
X128913580Y-44633945D01*
X128799556Y-45038751D01*
X128766698Y-45458024D01*
X111252000Y-45458024D01*
X111252000Y-43923547D01*
X129599552Y-43923547D01*
X130911600Y-45235595D01*
X132223648Y-43923547D01*
X132067638Y-43607986D01*
X131692855Y-43417180D01*
X131288049Y-43303156D01*
X130868776Y-43270298D01*
X130451149Y-43319866D01*
X130051217Y-43449957D01*
X129755562Y-43607986D01*
X129599552Y-43923547D01*
X111252000Y-43923547D01*
X111252000Y-25550447D01*
X113059158Y-25550447D01*
X113203135Y-25855770D01*
X113560892Y-26036597D01*
X113947053Y-26144155D01*
X114346777Y-26174310D01*
X114744704Y-26125904D01*
X115125540Y-26000795D01*
X115396865Y-25855770D01*
X115540842Y-25550447D01*
X114300000Y-24309605D01*
X113059158Y-25550447D01*
X111252000Y-25550447D01*
X111252000Y-24176777D01*
X112255690Y-24176777D01*
X112304096Y-24574704D01*
X112429205Y-24955540D01*
X112574230Y-25226865D01*
X112879553Y-25370842D01*
X114120395Y-24130000D01*
X114479605Y-24130000D01*
X115720447Y-25370842D01*
X116025770Y-25226865D01*
X116049522Y-25179872D01*
X128321000Y-25179872D01*
X128321000Y-25620128D01*
X128406890Y-26051925D01*
X128575369Y-26458669D01*
X128819962Y-26824729D01*
X129131271Y-27136038D01*
X129497331Y-27380631D01*
X129904075Y-27549110D01*
X130335872Y-27635000D01*
X130776128Y-27635000D01*
X131207925Y-27549110D01*
X131614669Y-27380631D01*
X131980729Y-27136038D01*
X132292038Y-26824729D01*
X132536631Y-26458669D01*
X132705110Y-26051925D01*
X132791000Y-25620128D01*
X132791000Y-25179872D01*
X132714605Y-24795806D01*
X155691801Y-24795806D01*
X155806500Y-25136754D01*
X155985511Y-25448774D01*
X156221954Y-25719875D01*
X156506743Y-25939639D01*
X156828934Y-26099621D01*
X157068195Y-26172195D01*
X157353000Y-26055432D01*
X157353000Y-24511000D01*
X157607000Y-24511000D01*
X157607000Y-26055432D01*
X157891805Y-26172195D01*
X158131066Y-26099621D01*
X158453257Y-25939639D01*
X158738046Y-25719875D01*
X158974489Y-25448774D01*
X159153500Y-25136754D01*
X159268199Y-24795806D01*
X159151854Y-24511000D01*
X157607000Y-24511000D01*
X157353000Y-24511000D01*
X155808146Y-24511000D01*
X155691801Y-24795806D01*
X132714605Y-24795806D01*
X132705110Y-24748075D01*
X132536631Y-24341331D01*
X132292038Y-23975271D01*
X132288961Y-23972194D01*
X155691801Y-23972194D01*
X155808146Y-24257000D01*
X157353000Y-24257000D01*
X157353000Y-22712568D01*
X157607000Y-22712568D01*
X157607000Y-24257000D01*
X159151854Y-24257000D01*
X159268199Y-23972194D01*
X159153500Y-23631246D01*
X158974489Y-23319226D01*
X158738046Y-23048125D01*
X158453257Y-22828361D01*
X158131066Y-22668379D01*
X157891805Y-22595805D01*
X157607000Y-22712568D01*
X157353000Y-22712568D01*
X157068195Y-22595805D01*
X156828934Y-22668379D01*
X156506743Y-22828361D01*
X156221954Y-23048125D01*
X155985511Y-23319226D01*
X155806500Y-23631246D01*
X155691801Y-23972194D01*
X132288961Y-23972194D01*
X131980729Y-23663962D01*
X131614669Y-23419369D01*
X131207925Y-23250890D01*
X130776128Y-23165000D01*
X130335872Y-23165000D01*
X129904075Y-23250890D01*
X129497331Y-23419369D01*
X129131271Y-23663962D01*
X128819962Y-23975271D01*
X128575369Y-24341331D01*
X128406890Y-24748075D01*
X128321000Y-25179872D01*
X116049522Y-25179872D01*
X116206597Y-24869108D01*
X116314155Y-24482947D01*
X116344310Y-24083223D01*
X116295904Y-23685296D01*
X116170795Y-23304460D01*
X116025770Y-23033135D01*
X115720447Y-22889158D01*
X114479605Y-24130000D01*
X114120395Y-24130000D01*
X112879553Y-22889158D01*
X112574230Y-23033135D01*
X112393403Y-23390892D01*
X112285845Y-23777053D01*
X112255690Y-24176777D01*
X111252000Y-24176777D01*
X111252000Y-22709553D01*
X113059158Y-22709553D01*
X114300000Y-23950395D01*
X115540842Y-22709553D01*
X115396865Y-22404230D01*
X115039108Y-22223403D01*
X114652947Y-22115845D01*
X114253223Y-22085690D01*
X113855296Y-22134096D01*
X113474460Y-22259205D01*
X113203135Y-22404230D01*
X113059158Y-22709553D01*
X111252000Y-22709553D01*
X111252000Y-22642606D01*
X112025606Y-21869000D01*
X162808101Y-21869000D01*
X162973086Y-22267308D01*
G36*
X220853000Y-121694049D02*
G01*
X220775642Y-121439021D01*
X220595792Y-121082932D01*
X220349928Y-120768772D01*
X220047499Y-120508614D01*
X219700127Y-120312456D01*
X219321161Y-120187836D01*
X219005000Y-120301713D01*
X219005000Y-122047000D01*
X219025000Y-122047000D01*
X219025000Y-122301000D01*
X219005000Y-122301000D01*
X219005000Y-124046287D01*
X219321161Y-124160164D01*
X219700127Y-124035544D01*
X220047499Y-123839386D01*
X220349928Y-123579228D01*
X220595792Y-123265068D01*
X220775642Y-122908979D01*
X220853000Y-122653951D01*
X220853000Y-125603000D01*
X191897000Y-125603000D01*
X191897000Y-122617160D01*
X216891840Y-122617160D01*
X216980358Y-122908979D01*
X217160208Y-123265068D01*
X217406072Y-123579228D01*
X217708501Y-123839386D01*
X218055873Y-124035544D01*
X218434839Y-124160164D01*
X218751000Y-124046287D01*
X218751000Y-122301000D01*
X217006053Y-122301000D01*
X216891840Y-122617160D01*
X191897000Y-122617160D01*
X191897000Y-121730840D01*
X216891840Y-121730840D01*
X217006053Y-122047000D01*
X218751000Y-122047000D01*
X218751000Y-120301713D01*
X218434839Y-120187836D01*
X218055873Y-120312456D01*
X217708501Y-120508614D01*
X217406072Y-120768772D01*
X217160208Y-121082932D01*
X216980358Y-121439021D01*
X216891840Y-121730840D01*
X191897000Y-121730840D01*
X191897000Y-109147270D01*
X192090321Y-109227346D01*
X192551098Y-109319000D01*
X193020902Y-109319000D01*
X193481679Y-109227346D01*
X193915721Y-109047560D01*
X194306349Y-108786550D01*
X194638550Y-108454349D01*
X194899560Y-108063721D01*
X195079346Y-107629679D01*
X195171000Y-107168902D01*
X195171000Y-106699098D01*
X195079346Y-106238321D01*
X194899560Y-105804279D01*
X194658744Y-105443872D01*
X215443000Y-105443872D01*
X215443000Y-105884128D01*
X215528890Y-106315925D01*
X215697369Y-106722669D01*
X215941962Y-107088729D01*
X216253271Y-107400038D01*
X216619331Y-107644631D01*
X217026075Y-107813110D01*
X217457872Y-107899000D01*
X217898128Y-107899000D01*
X218329925Y-107813110D01*
X218736669Y-107644631D01*
X219102729Y-107400038D01*
X219414038Y-107088729D01*
X219658631Y-106722669D01*
X219827110Y-106315925D01*
X219913000Y-105884128D01*
X219913000Y-105443872D01*
X219827110Y-105012075D01*
X219658631Y-104605331D01*
X219414038Y-104239271D01*
X219102729Y-103927962D01*
X218736669Y-103683369D01*
X218329925Y-103514890D01*
X217898128Y-103429000D01*
X217457872Y-103429000D01*
X217026075Y-103514890D01*
X216619331Y-103683369D01*
X216253271Y-103927962D01*
X215941962Y-104239271D01*
X215697369Y-104605331D01*
X215528890Y-105012075D01*
X215443000Y-105443872D01*
X194658744Y-105443872D01*
X194638550Y-105413651D01*
X194306349Y-105081450D01*
X193915721Y-104820440D01*
X193481679Y-104640654D01*
X193020902Y-104549000D01*
X192551098Y-104549000D01*
X192090321Y-104640654D01*
X191897000Y-104720730D01*
X191897000Y-91567000D01*
X220853000Y-91567000D01*
X220853000Y-121694049D01*
X220853000Y-121694049D01*
G37*
X220853000Y-121694049D02*
X220775642Y-121439021D01*
X220595792Y-121082932D01*
X220349928Y-120768772D01*
X220047499Y-120508614D01*
X219700127Y-120312456D01*
X219321161Y-120187836D01*
X219005000Y-120301713D01*
X219005000Y-122047000D01*
X219025000Y-122047000D01*
X219025000Y-122301000D01*
X219005000Y-122301000D01*
X219005000Y-124046287D01*
X219321161Y-124160164D01*
X219700127Y-124035544D01*
X220047499Y-123839386D01*
X220349928Y-123579228D01*
X220595792Y-123265068D01*
X220775642Y-122908979D01*
X220853000Y-122653951D01*
X220853000Y-125603000D01*
X191897000Y-125603000D01*
X191897000Y-122617160D01*
X216891840Y-122617160D01*
X216980358Y-122908979D01*
X217160208Y-123265068D01*
X217406072Y-123579228D01*
X217708501Y-123839386D01*
X218055873Y-124035544D01*
X218434839Y-124160164D01*
X218751000Y-124046287D01*
X218751000Y-122301000D01*
X217006053Y-122301000D01*
X216891840Y-122617160D01*
X191897000Y-122617160D01*
X191897000Y-121730840D01*
X216891840Y-121730840D01*
X217006053Y-122047000D01*
X218751000Y-122047000D01*
X218751000Y-120301713D01*
X218434839Y-120187836D01*
X218055873Y-120312456D01*
X217708501Y-120508614D01*
X217406072Y-120768772D01*
X217160208Y-121082932D01*
X216980358Y-121439021D01*
X216891840Y-121730840D01*
X191897000Y-121730840D01*
X191897000Y-109147270D01*
X192090321Y-109227346D01*
X192551098Y-109319000D01*
X193020902Y-109319000D01*
X193481679Y-109227346D01*
X193915721Y-109047560D01*
X194306349Y-108786550D01*
X194638550Y-108454349D01*
X194899560Y-108063721D01*
X195079346Y-107629679D01*
X195171000Y-107168902D01*
X195171000Y-106699098D01*
X195079346Y-106238321D01*
X194899560Y-105804279D01*
X194658744Y-105443872D01*
X215443000Y-105443872D01*
X215443000Y-105884128D01*
X215528890Y-106315925D01*
X215697369Y-106722669D01*
X215941962Y-107088729D01*
X216253271Y-107400038D01*
X216619331Y-107644631D01*
X217026075Y-107813110D01*
X217457872Y-107899000D01*
X217898128Y-107899000D01*
X218329925Y-107813110D01*
X218736669Y-107644631D01*
X219102729Y-107400038D01*
X219414038Y-107088729D01*
X219658631Y-106722669D01*
X219827110Y-106315925D01*
X219913000Y-105884128D01*
X219913000Y-105443872D01*
X219827110Y-105012075D01*
X219658631Y-104605331D01*
X219414038Y-104239271D01*
X219102729Y-103927962D01*
X218736669Y-103683369D01*
X218329925Y-103514890D01*
X217898128Y-103429000D01*
X217457872Y-103429000D01*
X217026075Y-103514890D01*
X216619331Y-103683369D01*
X216253271Y-103927962D01*
X215941962Y-104239271D01*
X215697369Y-104605331D01*
X215528890Y-105012075D01*
X215443000Y-105443872D01*
X194658744Y-105443872D01*
X194638550Y-105413651D01*
X194306349Y-105081450D01*
X193915721Y-104820440D01*
X193481679Y-104640654D01*
X193020902Y-104549000D01*
X192551098Y-104549000D01*
X192090321Y-104640654D01*
X191897000Y-104720730D01*
X191897000Y-91567000D01*
X220853000Y-91567000D01*
X220853000Y-121694049D01*
G36*
X201803000Y-90043000D02*
G01*
X189004174Y-90043000D01*
X189048744Y-89965149D01*
X187452000Y-88368405D01*
X185855256Y-89965149D01*
X185899826Y-90043000D01*
X184277000Y-90043000D01*
X184277000Y-88215821D01*
X184904877Y-88215821D01*
X184959091Y-88712222D01*
X185109106Y-89188507D01*
X185319133Y-89581438D01*
X185675651Y-89785544D01*
X187272395Y-88188800D01*
X187631605Y-88188800D01*
X189228349Y-89785544D01*
X189584867Y-89581438D01*
X189815575Y-89138577D01*
X189955452Y-88659217D01*
X189999123Y-88161779D01*
X189944909Y-87665378D01*
X189794894Y-87189093D01*
X189584867Y-86796162D01*
X189228349Y-86592056D01*
X187631605Y-88188800D01*
X187272395Y-88188800D01*
X185675651Y-86592056D01*
X185319133Y-86796162D01*
X185088425Y-87239023D01*
X184948548Y-87718383D01*
X184904877Y-88215821D01*
X184277000Y-88215821D01*
X184277000Y-86412451D01*
X185855256Y-86412451D01*
X187452000Y-88009195D01*
X189048744Y-86412451D01*
X189029650Y-86379098D01*
X190147000Y-86379098D01*
X190147000Y-86848902D01*
X190238654Y-87309679D01*
X190418440Y-87743721D01*
X190679450Y-88134349D01*
X191011651Y-88466550D01*
X191402279Y-88727560D01*
X191836321Y-88907346D01*
X192297098Y-88999000D01*
X192766902Y-88999000D01*
X193227679Y-88907346D01*
X193661721Y-88727560D01*
X194052349Y-88466550D01*
X194384550Y-88134349D01*
X194645560Y-87743721D01*
X194825346Y-87309679D01*
X194917000Y-86848902D01*
X194917000Y-86379098D01*
X194825346Y-85918321D01*
X194645560Y-85484279D01*
X194384550Y-85093651D01*
X194052349Y-84761450D01*
X193661721Y-84500440D01*
X193227679Y-84320654D01*
X192766902Y-84229000D01*
X192297098Y-84229000D01*
X191836321Y-84320654D01*
X191402279Y-84500440D01*
X191011651Y-84761450D01*
X190679450Y-85093651D01*
X190418440Y-85484279D01*
X190238654Y-85918321D01*
X190147000Y-86379098D01*
X189029650Y-86379098D01*
X188844638Y-86055933D01*
X188401777Y-85825225D01*
X187922417Y-85685348D01*
X187424979Y-85641677D01*
X186928578Y-85695891D01*
X186452293Y-85845906D01*
X186059362Y-86055933D01*
X185855256Y-86412451D01*
X184277000Y-86412451D01*
X184277000Y-83863575D01*
X188523998Y-78403148D01*
X196096457Y-78403148D01*
X196372627Y-78821118D01*
X196917557Y-79111649D01*
X197508696Y-79290287D01*
X198123328Y-79350168D01*
X198737831Y-79288990D01*
X199328592Y-79109103D01*
X199867373Y-78821118D01*
X200143543Y-78403148D01*
X198120000Y-76379605D01*
X196096457Y-78403148D01*
X188523998Y-78403148D01*
X190234969Y-76203328D01*
X194969832Y-76203328D01*
X195031010Y-76817831D01*
X195210897Y-77408592D01*
X195498882Y-77947373D01*
X195916852Y-78223543D01*
X197940395Y-76200000D01*
X198299605Y-76200000D01*
X200323148Y-78223543D01*
X200741118Y-77947373D01*
X201031649Y-77402443D01*
X201210287Y-76811304D01*
X201270168Y-76196672D01*
X201208990Y-75582169D01*
X201029103Y-74991408D01*
X200741118Y-74452627D01*
X200323148Y-74176457D01*
X198299605Y-76200000D01*
X197940395Y-76200000D01*
X195916852Y-74176457D01*
X195498882Y-74452627D01*
X195208351Y-74997557D01*
X195029713Y-75588696D01*
X194969832Y-76203328D01*
X190234969Y-76203328D01*
X191951117Y-73996852D01*
X196096457Y-73996852D01*
X198120000Y-76020395D01*
X200143543Y-73996852D01*
X199867373Y-73578882D01*
X199322443Y-73288351D01*
X198731304Y-73109713D01*
X198116672Y-73049832D01*
X197502169Y-73111010D01*
X196911408Y-73290897D01*
X196372627Y-73578882D01*
X196096457Y-73996852D01*
X191951117Y-73996852D01*
X193102114Y-72517000D01*
X201803000Y-72517000D01*
X201803000Y-90043000D01*
X201803000Y-90043000D01*
G37*
X201803000Y-90043000D02*
X189004174Y-90043000D01*
X189048744Y-89965149D01*
X187452000Y-88368405D01*
X185855256Y-89965149D01*
X185899826Y-90043000D01*
X184277000Y-90043000D01*
X184277000Y-88215821D01*
X184904877Y-88215821D01*
X184959091Y-88712222D01*
X185109106Y-89188507D01*
X185319133Y-89581438D01*
X185675651Y-89785544D01*
X187272395Y-88188800D01*
X187631605Y-88188800D01*
X189228349Y-89785544D01*
X189584867Y-89581438D01*
X189815575Y-89138577D01*
X189955452Y-88659217D01*
X189999123Y-88161779D01*
X189944909Y-87665378D01*
X189794894Y-87189093D01*
X189584867Y-86796162D01*
X189228349Y-86592056D01*
X187631605Y-88188800D01*
X187272395Y-88188800D01*
X185675651Y-86592056D01*
X185319133Y-86796162D01*
X185088425Y-87239023D01*
X184948548Y-87718383D01*
X184904877Y-88215821D01*
X184277000Y-88215821D01*
X184277000Y-86412451D01*
X185855256Y-86412451D01*
X187452000Y-88009195D01*
X189048744Y-86412451D01*
X189029650Y-86379098D01*
X190147000Y-86379098D01*
X190147000Y-86848902D01*
X190238654Y-87309679D01*
X190418440Y-87743721D01*
X190679450Y-88134349D01*
X191011651Y-88466550D01*
X191402279Y-88727560D01*
X191836321Y-88907346D01*
X192297098Y-88999000D01*
X192766902Y-88999000D01*
X193227679Y-88907346D01*
X193661721Y-88727560D01*
X194052349Y-88466550D01*
X194384550Y-88134349D01*
X194645560Y-87743721D01*
X194825346Y-87309679D01*
X194917000Y-86848902D01*
X194917000Y-86379098D01*
X194825346Y-85918321D01*
X194645560Y-85484279D01*
X194384550Y-85093651D01*
X194052349Y-84761450D01*
X193661721Y-84500440D01*
X193227679Y-84320654D01*
X192766902Y-84229000D01*
X192297098Y-84229000D01*
X191836321Y-84320654D01*
X191402279Y-84500440D01*
X191011651Y-84761450D01*
X190679450Y-85093651D01*
X190418440Y-85484279D01*
X190238654Y-85918321D01*
X190147000Y-86379098D01*
X189029650Y-86379098D01*
X188844638Y-86055933D01*
X188401777Y-85825225D01*
X187922417Y-85685348D01*
X187424979Y-85641677D01*
X186928578Y-85695891D01*
X186452293Y-85845906D01*
X186059362Y-86055933D01*
X185855256Y-86412451D01*
X184277000Y-86412451D01*
X184277000Y-83863575D01*
X188523998Y-78403148D01*
X196096457Y-78403148D01*
X196372627Y-78821118D01*
X196917557Y-79111649D01*
X197508696Y-79290287D01*
X198123328Y-79350168D01*
X198737831Y-79288990D01*
X199328592Y-79109103D01*
X199867373Y-78821118D01*
X200143543Y-78403148D01*
X198120000Y-76379605D01*
X196096457Y-78403148D01*
X188523998Y-78403148D01*
X190234969Y-76203328D01*
X194969832Y-76203328D01*
X195031010Y-76817831D01*
X195210897Y-77408592D01*
X195498882Y-77947373D01*
X195916852Y-78223543D01*
X197940395Y-76200000D01*
X198299605Y-76200000D01*
X200323148Y-78223543D01*
X200741118Y-77947373D01*
X201031649Y-77402443D01*
X201210287Y-76811304D01*
X201270168Y-76196672D01*
X201208990Y-75582169D01*
X201029103Y-74991408D01*
X200741118Y-74452627D01*
X200323148Y-74176457D01*
X198299605Y-76200000D01*
X197940395Y-76200000D01*
X195916852Y-74176457D01*
X195498882Y-74452627D01*
X195208351Y-74997557D01*
X195029713Y-75588696D01*
X194969832Y-76203328D01*
X190234969Y-76203328D01*
X191951117Y-73996852D01*
X196096457Y-73996852D01*
X198120000Y-76020395D01*
X200143543Y-73996852D01*
X199867373Y-73578882D01*
X199322443Y-73288351D01*
X198731304Y-73109713D01*
X198116672Y-73049832D01*
X197502169Y-73111010D01*
X196911408Y-73290897D01*
X196372627Y-73578882D01*
X196096457Y-73996852D01*
X191951117Y-73996852D01*
X193102114Y-72517000D01*
X201803000Y-72517000D01*
X201803000Y-90043000D01*
M02*
