G04 #@! TF.GenerationSoftware,KiCad,Pcbnew,(5.1.4)-1*
G04 #@! TF.CreationDate,2019-10-17T19:09:16-07:00*
G04 #@! TF.ProjectId,amiga crossover,616d6967-6120-4637-926f-73736f766572,0.2*
G04 #@! TF.SameCoordinates,Original*
G04 #@! TF.FileFunction,Legend,Top*
G04 #@! TF.FilePolarity,Positive*
%FSLAX46Y46*%
G04 Gerber Fmt 4.6, Leading zero omitted, Abs format (unit mm)*
G04 Created by KiCad (PCBNEW (5.1.4)-1) date 2019-10-17 19:09:16*
%MOMM*%
%LPD*%
G04 APERTURE LIST*
%ADD10C,0.150000*%
%ADD11C,0.300000*%
%ADD12C,0.120000*%
G04 APERTURE END LIST*
D10*
X106728095Y-89804761D02*
X105775714Y-89804761D01*
X105775714Y-87804761D01*
X107394761Y-89804761D02*
X107394761Y-88471428D01*
X107394761Y-87804761D02*
X107299523Y-87900000D01*
X107394761Y-87995238D01*
X107490000Y-87900000D01*
X107394761Y-87804761D01*
X107394761Y-87995238D01*
X108347142Y-88471428D02*
X108347142Y-89804761D01*
X108347142Y-88661904D02*
X108442380Y-88566666D01*
X108632857Y-88471428D01*
X108918571Y-88471428D01*
X109109047Y-88566666D01*
X109204285Y-88757142D01*
X109204285Y-89804761D01*
X110918571Y-89709523D02*
X110728095Y-89804761D01*
X110347142Y-89804761D01*
X110156666Y-89709523D01*
X110061428Y-89519047D01*
X110061428Y-88757142D01*
X110156666Y-88566666D01*
X110347142Y-88471428D01*
X110728095Y-88471428D01*
X110918571Y-88566666D01*
X111013809Y-88757142D01*
X111013809Y-88947619D01*
X110061428Y-89138095D01*
X113394761Y-89804761D02*
X113394761Y-87804761D01*
X114347142Y-88471428D02*
X114347142Y-89804761D01*
X114347142Y-88661904D02*
X114442380Y-88566666D01*
X114632857Y-88471428D01*
X114918571Y-88471428D01*
X115109047Y-88566666D01*
X115204285Y-88757142D01*
X115204285Y-89804761D01*
D11*
X219960000Y-69882857D02*
X219960000Y-69168571D01*
X220388571Y-70025714D02*
X218888571Y-69525714D01*
X220388571Y-69025714D01*
X220388571Y-68525714D02*
X219388571Y-68525714D01*
X219531428Y-68525714D02*
X219460000Y-68454285D01*
X219388571Y-68311428D01*
X219388571Y-68097142D01*
X219460000Y-67954285D01*
X219602857Y-67882857D01*
X220388571Y-67882857D01*
X219602857Y-67882857D02*
X219460000Y-67811428D01*
X219388571Y-67668571D01*
X219388571Y-67454285D01*
X219460000Y-67311428D01*
X219602857Y-67240000D01*
X220388571Y-67240000D01*
X220388571Y-66525714D02*
X219388571Y-66525714D01*
X218888571Y-66525714D02*
X218960000Y-66597142D01*
X219031428Y-66525714D01*
X218960000Y-66454285D01*
X218888571Y-66525714D01*
X219031428Y-66525714D01*
X219388571Y-65168571D02*
X220602857Y-65168571D01*
X220745714Y-65240000D01*
X220817142Y-65311428D01*
X220888571Y-65454285D01*
X220888571Y-65668571D01*
X220817142Y-65811428D01*
X220317142Y-65168571D02*
X220388571Y-65311428D01*
X220388571Y-65597142D01*
X220317142Y-65740000D01*
X220245714Y-65811428D01*
X220102857Y-65882857D01*
X219674285Y-65882857D01*
X219531428Y-65811428D01*
X219460000Y-65740000D01*
X219388571Y-65597142D01*
X219388571Y-65311428D01*
X219460000Y-65168571D01*
X220388571Y-63811428D02*
X219602857Y-63811428D01*
X219460000Y-63882857D01*
X219388571Y-64025714D01*
X219388571Y-64311428D01*
X219460000Y-64454285D01*
X220317142Y-63811428D02*
X220388571Y-63954285D01*
X220388571Y-64311428D01*
X220317142Y-64454285D01*
X220174285Y-64525714D01*
X220031428Y-64525714D01*
X219888571Y-64454285D01*
X219817142Y-64311428D01*
X219817142Y-63954285D01*
X219745714Y-63811428D01*
X220245714Y-61097142D02*
X220317142Y-61168571D01*
X220388571Y-61382857D01*
X220388571Y-61525714D01*
X220317142Y-61740000D01*
X220174285Y-61882857D01*
X220031428Y-61954285D01*
X219745714Y-62025714D01*
X219531428Y-62025714D01*
X219245714Y-61954285D01*
X219102857Y-61882857D01*
X218960000Y-61740000D01*
X218888571Y-61525714D01*
X218888571Y-61382857D01*
X218960000Y-61168571D01*
X219031428Y-61097142D01*
X220388571Y-60454285D02*
X219388571Y-60454285D01*
X219674285Y-60454285D02*
X219531428Y-60382857D01*
X219460000Y-60311428D01*
X219388571Y-60168571D01*
X219388571Y-60025714D01*
X220388571Y-59311428D02*
X220317142Y-59454285D01*
X220245714Y-59525714D01*
X220102857Y-59597142D01*
X219674285Y-59597142D01*
X219531428Y-59525714D01*
X219460000Y-59454285D01*
X219388571Y-59311428D01*
X219388571Y-59097142D01*
X219460000Y-58954285D01*
X219531428Y-58882857D01*
X219674285Y-58811428D01*
X220102857Y-58811428D01*
X220245714Y-58882857D01*
X220317142Y-58954285D01*
X220388571Y-59097142D01*
X220388571Y-59311428D01*
X220317142Y-58240000D02*
X220388571Y-58097142D01*
X220388571Y-57811428D01*
X220317142Y-57668571D01*
X220174285Y-57597142D01*
X220102857Y-57597142D01*
X219960000Y-57668571D01*
X219888571Y-57811428D01*
X219888571Y-58025714D01*
X219817142Y-58168571D01*
X219674285Y-58240000D01*
X219602857Y-58240000D01*
X219460000Y-58168571D01*
X219388571Y-58025714D01*
X219388571Y-57811428D01*
X219460000Y-57668571D01*
X220317142Y-57025714D02*
X220388571Y-56882857D01*
X220388571Y-56597142D01*
X220317142Y-56454285D01*
X220174285Y-56382857D01*
X220102857Y-56382857D01*
X219960000Y-56454285D01*
X219888571Y-56597142D01*
X219888571Y-56811428D01*
X219817142Y-56954285D01*
X219674285Y-57025714D01*
X219602857Y-57025714D01*
X219460000Y-56954285D01*
X219388571Y-56811428D01*
X219388571Y-56597142D01*
X219460000Y-56454285D01*
X220388571Y-55525714D02*
X220317142Y-55668571D01*
X220245714Y-55740000D01*
X220102857Y-55811428D01*
X219674285Y-55811428D01*
X219531428Y-55740000D01*
X219460000Y-55668571D01*
X219388571Y-55525714D01*
X219388571Y-55311428D01*
X219460000Y-55168571D01*
X219531428Y-55097142D01*
X219674285Y-55025714D01*
X220102857Y-55025714D01*
X220245714Y-55097142D01*
X220317142Y-55168571D01*
X220388571Y-55311428D01*
X220388571Y-55525714D01*
X219388571Y-54525714D02*
X220388571Y-54168571D01*
X219388571Y-53811428D01*
X220317142Y-52668571D02*
X220388571Y-52811428D01*
X220388571Y-53097142D01*
X220317142Y-53240000D01*
X220174285Y-53311428D01*
X219602857Y-53311428D01*
X219460000Y-53240000D01*
X219388571Y-53097142D01*
X219388571Y-52811428D01*
X219460000Y-52668571D01*
X219602857Y-52597142D01*
X219745714Y-52597142D01*
X219888571Y-53311428D01*
X220388571Y-51954285D02*
X219388571Y-51954285D01*
X219674285Y-51954285D02*
X219531428Y-51882857D01*
X219460000Y-51811428D01*
X219388571Y-51668571D01*
X219388571Y-51525714D01*
X218888571Y-49597142D02*
X218888571Y-49311428D01*
X218960000Y-49168571D01*
X219102857Y-49025714D01*
X219388571Y-48954285D01*
X219888571Y-48954285D01*
X220174285Y-49025714D01*
X220317142Y-49168571D01*
X220388571Y-49311428D01*
X220388571Y-49597142D01*
X220317142Y-49740000D01*
X220174285Y-49882857D01*
X219888571Y-49954285D01*
X219388571Y-49954285D01*
X219102857Y-49882857D01*
X218960000Y-49740000D01*
X218888571Y-49597142D01*
X220317142Y-47668571D02*
X220388571Y-47811428D01*
X220388571Y-48097142D01*
X220317142Y-48240000D01*
X220245714Y-48311428D01*
X220102857Y-48382857D01*
X219674285Y-48382857D01*
X219531428Y-48311428D01*
X219460000Y-48240000D01*
X219388571Y-48097142D01*
X219388571Y-47811428D01*
X219460000Y-47668571D01*
X219388571Y-47240000D02*
X219388571Y-46668571D01*
X218888571Y-47025714D02*
X220174285Y-47025714D01*
X220317142Y-46954285D01*
X220388571Y-46811428D01*
X220388571Y-46668571D01*
X219031428Y-45097142D02*
X218960000Y-45025714D01*
X218888571Y-44882857D01*
X218888571Y-44525714D01*
X218960000Y-44382857D01*
X219031428Y-44311428D01*
X219174285Y-44240000D01*
X219317142Y-44240000D01*
X219531428Y-44311428D01*
X220388571Y-45168571D01*
X220388571Y-44240000D01*
X218888571Y-43311428D02*
X218888571Y-43168571D01*
X218960000Y-43025714D01*
X219031428Y-42954285D01*
X219174285Y-42882857D01*
X219460000Y-42811428D01*
X219817142Y-42811428D01*
X220102857Y-42882857D01*
X220245714Y-42954285D01*
X220317142Y-43025714D01*
X220388571Y-43168571D01*
X220388571Y-43311428D01*
X220317142Y-43454285D01*
X220245714Y-43525714D01*
X220102857Y-43597142D01*
X219817142Y-43668571D01*
X219460000Y-43668571D01*
X219174285Y-43597142D01*
X219031428Y-43525714D01*
X218960000Y-43454285D01*
X218888571Y-43311428D01*
X220388571Y-41382857D02*
X220388571Y-42240000D01*
X220388571Y-41811428D02*
X218888571Y-41811428D01*
X219102857Y-41954285D01*
X219245714Y-42097142D01*
X219317142Y-42240000D01*
X220388571Y-40668571D02*
X220388571Y-40382857D01*
X220317142Y-40240000D01*
X220245714Y-40168571D01*
X220031428Y-40025714D01*
X219745714Y-39954285D01*
X219174285Y-39954285D01*
X219031428Y-40025714D01*
X218960000Y-40097142D01*
X218888571Y-40240000D01*
X218888571Y-40525714D01*
X218960000Y-40668571D01*
X219031428Y-40740000D01*
X219174285Y-40811428D01*
X219531428Y-40811428D01*
X219674285Y-40740000D01*
X219745714Y-40668571D01*
X219817142Y-40525714D01*
X219817142Y-40240000D01*
X219745714Y-40097142D01*
X219674285Y-40025714D01*
X219531428Y-39954285D01*
X219817142Y-38168571D02*
X219817142Y-37025714D01*
X220388571Y-34954285D02*
X220317142Y-35097142D01*
X220174285Y-35168571D01*
X218888571Y-35168571D01*
X220388571Y-33740000D02*
X219602857Y-33740000D01*
X219460000Y-33811428D01*
X219388571Y-33954285D01*
X219388571Y-34240000D01*
X219460000Y-34382857D01*
X220317142Y-33740000D02*
X220388571Y-33882857D01*
X220388571Y-34240000D01*
X220317142Y-34382857D01*
X220174285Y-34454285D01*
X220031428Y-34454285D01*
X219888571Y-34382857D01*
X219817142Y-34240000D01*
X219817142Y-33882857D01*
X219745714Y-33740000D01*
X220388571Y-33168571D02*
X219388571Y-32382857D01*
X219388571Y-33168571D02*
X220388571Y-32382857D01*
X219388571Y-31811428D02*
X220888571Y-31811428D01*
X219460000Y-31811428D02*
X219388571Y-31668571D01*
X219388571Y-31382857D01*
X219460000Y-31240000D01*
X219531428Y-31168571D01*
X219674285Y-31097142D01*
X220102857Y-31097142D01*
X220245714Y-31168571D01*
X220317142Y-31240000D01*
X220388571Y-31382857D01*
X220388571Y-31668571D01*
X220317142Y-31811428D01*
X220388571Y-30454285D02*
X219388571Y-30454285D01*
X219674285Y-30454285D02*
X219531428Y-30382857D01*
X219460000Y-30311428D01*
X219388571Y-30168571D01*
X219388571Y-30025714D01*
X220388571Y-28882857D02*
X219602857Y-28882857D01*
X219460000Y-28954285D01*
X219388571Y-29097142D01*
X219388571Y-29382857D01*
X219460000Y-29525714D01*
X220317142Y-28882857D02*
X220388571Y-29025714D01*
X220388571Y-29382857D01*
X220317142Y-29525714D01*
X220174285Y-29597142D01*
X220031428Y-29597142D01*
X219888571Y-29525714D01*
X219817142Y-29382857D01*
X219817142Y-29025714D01*
X219745714Y-28882857D01*
X220388571Y-27525714D02*
X218888571Y-27525714D01*
X220317142Y-27525714D02*
X220388571Y-27668571D01*
X220388571Y-27954285D01*
X220317142Y-28097142D01*
X220245714Y-28168571D01*
X220102857Y-28240000D01*
X219674285Y-28240000D01*
X219531428Y-28168571D01*
X219460000Y-28097142D01*
X219388571Y-27954285D01*
X219388571Y-27668571D01*
X219460000Y-27525714D01*
X220245714Y-26811428D02*
X220317142Y-26740000D01*
X220388571Y-26811428D01*
X220317142Y-26882857D01*
X220245714Y-26811428D01*
X220388571Y-26811428D01*
X220317142Y-25454285D02*
X220388571Y-25597142D01*
X220388571Y-25882857D01*
X220317142Y-26025714D01*
X220245714Y-26097142D01*
X220102857Y-26168571D01*
X219674285Y-26168571D01*
X219531428Y-26097142D01*
X219460000Y-26025714D01*
X219388571Y-25882857D01*
X219388571Y-25597142D01*
X219460000Y-25454285D01*
X220388571Y-24168571D02*
X219602857Y-24168571D01*
X219460000Y-24240000D01*
X219388571Y-24382857D01*
X219388571Y-24668571D01*
X219460000Y-24811428D01*
X220317142Y-24168571D02*
X220388571Y-24311428D01*
X220388571Y-24668571D01*
X220317142Y-24811428D01*
X220174285Y-24882857D01*
X220031428Y-24882857D01*
X219888571Y-24811428D01*
X219817142Y-24668571D01*
X219817142Y-24311428D01*
X219745714Y-24168571D01*
D10*
X199613333Y-44624761D02*
X200756190Y-44624761D01*
X200184761Y-46624761D02*
X200184761Y-44624761D01*
X201232380Y-45291428D02*
X201613333Y-46624761D01*
X201994285Y-45672380D01*
X202375238Y-46624761D01*
X202756190Y-45291428D01*
X204280000Y-46529523D02*
X204089523Y-46624761D01*
X203708571Y-46624761D01*
X203518095Y-46529523D01*
X203422857Y-46339047D01*
X203422857Y-45577142D01*
X203518095Y-45386666D01*
X203708571Y-45291428D01*
X204089523Y-45291428D01*
X204280000Y-45386666D01*
X204375238Y-45577142D01*
X204375238Y-45767619D01*
X203422857Y-45958095D01*
X205994285Y-46529523D02*
X205803809Y-46624761D01*
X205422857Y-46624761D01*
X205232380Y-46529523D01*
X205137142Y-46339047D01*
X205137142Y-45577142D01*
X205232380Y-45386666D01*
X205422857Y-45291428D01*
X205803809Y-45291428D01*
X205994285Y-45386666D01*
X206089523Y-45577142D01*
X206089523Y-45767619D01*
X205137142Y-45958095D01*
X206660952Y-45291428D02*
X207422857Y-45291428D01*
X206946666Y-44624761D02*
X206946666Y-46339047D01*
X207041904Y-46529523D01*
X207232380Y-46624761D01*
X207422857Y-46624761D01*
X208851428Y-46529523D02*
X208660952Y-46624761D01*
X208280000Y-46624761D01*
X208089523Y-46529523D01*
X207994285Y-46339047D01*
X207994285Y-45577142D01*
X208089523Y-45386666D01*
X208280000Y-45291428D01*
X208660952Y-45291428D01*
X208851428Y-45386666D01*
X208946666Y-45577142D01*
X208946666Y-45767619D01*
X207994285Y-45958095D01*
X209803809Y-46624761D02*
X209803809Y-45291428D01*
X209803809Y-45672380D02*
X209899047Y-45481904D01*
X209994285Y-45386666D01*
X210184761Y-45291428D01*
X210375238Y-45291428D01*
X212946666Y-44624761D02*
X213327619Y-44624761D01*
X213518095Y-44720000D01*
X213708571Y-44910476D01*
X213803809Y-45291428D01*
X213803809Y-45958095D01*
X213708571Y-46339047D01*
X213518095Y-46529523D01*
X213327619Y-46624761D01*
X212946666Y-46624761D01*
X212756190Y-46529523D01*
X212565714Y-46339047D01*
X212470476Y-45958095D01*
X212470476Y-45291428D01*
X212565714Y-44910476D01*
X212756190Y-44720000D01*
X212946666Y-44624761D01*
X215518095Y-45291428D02*
X215518095Y-46624761D01*
X214660952Y-45291428D02*
X214660952Y-46339047D01*
X214756190Y-46529523D01*
X214946666Y-46624761D01*
X215232380Y-46624761D01*
X215422857Y-46529523D01*
X215518095Y-46434285D01*
X216184761Y-45291428D02*
X216946666Y-45291428D01*
X216470476Y-44624761D02*
X216470476Y-46339047D01*
X216565714Y-46529523D01*
X216756190Y-46624761D01*
X216946666Y-46624761D01*
X200280000Y-70024761D02*
X200756190Y-72024761D01*
X201137142Y-70596190D01*
X201518095Y-72024761D01*
X201994285Y-70024761D01*
X203041904Y-72024761D02*
X202851428Y-71929523D01*
X202756190Y-71834285D01*
X202660952Y-71643809D01*
X202660952Y-71072380D01*
X202756190Y-70881904D01*
X202851428Y-70786666D01*
X203041904Y-70691428D01*
X203327619Y-70691428D01*
X203518095Y-70786666D01*
X203613333Y-70881904D01*
X203708571Y-71072380D01*
X203708571Y-71643809D01*
X203613333Y-71834285D01*
X203518095Y-71929523D01*
X203327619Y-72024761D01*
X203041904Y-72024761D01*
X204851428Y-72024761D02*
X204660952Y-71929523D01*
X204565714Y-71834285D01*
X204470476Y-71643809D01*
X204470476Y-71072380D01*
X204565714Y-70881904D01*
X204660952Y-70786666D01*
X204851428Y-70691428D01*
X205137142Y-70691428D01*
X205327619Y-70786666D01*
X205422857Y-70881904D01*
X205518095Y-71072380D01*
X205518095Y-71643809D01*
X205422857Y-71834285D01*
X205327619Y-71929523D01*
X205137142Y-72024761D01*
X204851428Y-72024761D01*
X206089523Y-70691428D02*
X206851428Y-70691428D01*
X206375238Y-72024761D02*
X206375238Y-70310476D01*
X206470476Y-70120000D01*
X206660952Y-70024761D01*
X206851428Y-70024761D01*
X208280000Y-71929523D02*
X208089523Y-72024761D01*
X207708571Y-72024761D01*
X207518095Y-71929523D01*
X207422857Y-71739047D01*
X207422857Y-70977142D01*
X207518095Y-70786666D01*
X207708571Y-70691428D01*
X208089523Y-70691428D01*
X208280000Y-70786666D01*
X208375238Y-70977142D01*
X208375238Y-71167619D01*
X207422857Y-71358095D01*
X209232380Y-72024761D02*
X209232380Y-70691428D01*
X209232380Y-71072380D02*
X209327619Y-70881904D01*
X209422857Y-70786666D01*
X209613333Y-70691428D01*
X209803809Y-70691428D01*
X212375238Y-70024761D02*
X212756190Y-70024761D01*
X212946666Y-70120000D01*
X213137142Y-70310476D01*
X213232380Y-70691428D01*
X213232380Y-71358095D01*
X213137142Y-71739047D01*
X212946666Y-71929523D01*
X212756190Y-72024761D01*
X212375238Y-72024761D01*
X212184761Y-71929523D01*
X211994285Y-71739047D01*
X211899047Y-71358095D01*
X211899047Y-70691428D01*
X211994285Y-70310476D01*
X212184761Y-70120000D01*
X212375238Y-70024761D01*
X214946666Y-70691428D02*
X214946666Y-72024761D01*
X214089523Y-70691428D02*
X214089523Y-71739047D01*
X214184761Y-71929523D01*
X214375238Y-72024761D01*
X214660952Y-72024761D01*
X214851428Y-71929523D01*
X214946666Y-71834285D01*
X215613333Y-70691428D02*
X216375238Y-70691428D01*
X215899047Y-70024761D02*
X215899047Y-71739047D01*
X215994285Y-71929523D01*
X216184761Y-72024761D01*
X216375238Y-72024761D01*
D12*
X217238000Y-122174000D02*
X215998000Y-122174000D01*
X168518000Y-122174000D02*
X169758000Y-122174000D01*
X173958000Y-132294000D02*
X215998000Y-132294000D01*
X172908000Y-131244000D02*
X173958000Y-132294000D01*
X171858000Y-132294000D02*
X172908000Y-131244000D01*
X169758000Y-132294000D02*
X171858000Y-132294000D01*
X173958000Y-112054000D02*
X215998000Y-112054000D01*
X172908000Y-113104000D02*
X173958000Y-112054000D01*
X171858000Y-112054000D02*
X172908000Y-113104000D01*
X169758000Y-112054000D02*
X171858000Y-112054000D01*
X215998000Y-112054000D02*
X215998000Y-132294000D01*
X169758000Y-112054000D02*
X169758000Y-132294000D01*
X148020000Y-83566000D02*
X146080000Y-83566000D01*
X125900000Y-83566000D02*
X127840000Y-83566000D01*
X131440000Y-87686000D02*
X146080000Y-87686000D01*
X130540000Y-86786000D02*
X131440000Y-87686000D01*
X129640000Y-87686000D02*
X130540000Y-86786000D01*
X127840000Y-87686000D02*
X129640000Y-87686000D01*
X131440000Y-79446000D02*
X146080000Y-79446000D01*
X130540000Y-80346000D02*
X131440000Y-79446000D01*
X129640000Y-79446000D02*
X130540000Y-80346000D01*
X127840000Y-79446000D02*
X129640000Y-79446000D01*
X146080000Y-79446000D02*
X146080000Y-87686000D01*
X127840000Y-79446000D02*
X127840000Y-87686000D01*
X114300000Y-74490000D02*
X114300000Y-73250000D01*
X114300000Y-25770000D02*
X114300000Y-27010000D01*
X104180000Y-31210000D02*
X104180000Y-73250000D01*
X105230000Y-30160000D02*
X104180000Y-31210000D01*
X104180000Y-29110000D02*
X105230000Y-30160000D01*
X104180000Y-27010000D02*
X104180000Y-29110000D01*
X124420000Y-31210000D02*
X124420000Y-73250000D01*
X123370000Y-30160000D02*
X124420000Y-31210000D01*
X124420000Y-29110000D02*
X123370000Y-30160000D01*
X124420000Y-27010000D02*
X124420000Y-29110000D01*
X124420000Y-73250000D02*
X104180000Y-73250000D01*
X124420000Y-27010000D02*
X104180000Y-27010000D01*
X148087543Y-113792000D02*
G75*
G03X148087543Y-113792000I-12071543J0D01*
G01*
X159766000Y-113792000D02*
G75*
G03X159766000Y-113792000I-23750000J0D01*
G01*
X131472800Y-43738800D02*
X131472800Y-30183600D01*
X131472800Y-62331600D02*
X131472800Y-47294800D01*
X131472800Y-30183600D02*
X146558000Y-30183600D01*
X146558000Y-62331600D02*
X131472800Y-62331600D01*
X146558000Y-30183600D02*
X146558000Y-43789600D01*
X146558000Y-62331600D02*
X146558000Y-47193200D01*
X167944800Y-104343200D02*
X167944800Y-89204800D01*
X210572000Y-104434000D02*
X210572000Y-89204800D01*
X185667000Y-104434000D02*
X167944800Y-104434000D01*
X210572000Y-104434000D02*
X189237000Y-104434000D01*
X167944800Y-89204800D02*
X185623200Y-89204800D01*
X210566000Y-89204800D02*
X189280800Y-89204800D01*
X170434000Y-25570000D02*
X170434000Y-26950000D01*
X170434000Y-78570000D02*
X170434000Y-77190000D01*
X165814000Y-26950000D02*
X165814000Y-77190000D01*
X175054000Y-26950000D02*
X165814000Y-26950000D01*
X175054000Y-77190000D02*
X175054000Y-26950000D01*
X165814000Y-77190000D02*
X175054000Y-77190000D01*
X183642000Y-25570000D02*
X183642000Y-26950000D01*
X183642000Y-78570000D02*
X183642000Y-77190000D01*
X179022000Y-26950000D02*
X179022000Y-77190000D01*
X188262000Y-26950000D02*
X179022000Y-26950000D01*
X188262000Y-77190000D02*
X188262000Y-26950000D01*
X179022000Y-77190000D02*
X188262000Y-77190000D01*
X157480000Y-25824000D02*
X157480000Y-27204000D01*
X157480000Y-78824000D02*
X157480000Y-77444000D01*
X152860000Y-27204000D02*
X152860000Y-77444000D01*
X162100000Y-27204000D02*
X152860000Y-27204000D01*
X162100000Y-77444000D02*
X162100000Y-27204000D01*
X152860000Y-77444000D02*
X162100000Y-77444000D01*
D10*
X170013523Y-110370952D02*
X169918285Y-110323333D01*
X169870666Y-110275714D01*
X169823047Y-110180476D01*
X169823047Y-110132857D01*
X169870666Y-110037619D01*
X169918285Y-109990000D01*
X170013523Y-109942380D01*
X170204000Y-109942380D01*
X170299238Y-109990000D01*
X170346857Y-110037619D01*
X170394476Y-110132857D01*
X170394476Y-110180476D01*
X170346857Y-110275714D01*
X170299238Y-110323333D01*
X170204000Y-110370952D01*
X170013523Y-110370952D01*
X169918285Y-110418571D01*
X169870666Y-110466190D01*
X169823047Y-110561428D01*
X169823047Y-110751904D01*
X169870666Y-110847142D01*
X169918285Y-110894761D01*
X170013523Y-110942380D01*
X170204000Y-110942380D01*
X170299238Y-110894761D01*
X170346857Y-110847142D01*
X170394476Y-110751904D01*
X170394476Y-110561428D01*
X170346857Y-110466190D01*
X170299238Y-110418571D01*
X170204000Y-110370952D01*
X170823047Y-110847142D02*
X170870666Y-110894761D01*
X170823047Y-110942380D01*
X170775428Y-110894761D01*
X170823047Y-110847142D01*
X170823047Y-110942380D01*
X171251619Y-110037619D02*
X171299238Y-109990000D01*
X171394476Y-109942380D01*
X171632571Y-109942380D01*
X171727809Y-109990000D01*
X171775428Y-110037619D01*
X171823047Y-110132857D01*
X171823047Y-110228095D01*
X171775428Y-110370952D01*
X171204000Y-110942380D01*
X171823047Y-110942380D01*
X172680190Y-110275714D02*
X172680190Y-110942380D01*
X172251619Y-110275714D02*
X172251619Y-110799523D01*
X172299238Y-110894761D01*
X172394476Y-110942380D01*
X172537333Y-110942380D01*
X172632571Y-110894761D01*
X172680190Y-110847142D01*
X173489714Y-110418571D02*
X173156380Y-110418571D01*
X173156380Y-110942380D02*
X173156380Y-109942380D01*
X173632571Y-109942380D01*
X141136952Y-77684380D02*
X141232190Y-77684380D01*
X141327428Y-77732000D01*
X141375047Y-77779619D01*
X141422666Y-77874857D01*
X141470285Y-78065333D01*
X141470285Y-78303428D01*
X141422666Y-78493904D01*
X141375047Y-78589142D01*
X141327428Y-78636761D01*
X141232190Y-78684380D01*
X141136952Y-78684380D01*
X141041714Y-78636761D01*
X140994095Y-78589142D01*
X140946476Y-78493904D01*
X140898857Y-78303428D01*
X140898857Y-78065333D01*
X140946476Y-77874857D01*
X140994095Y-77779619D01*
X141041714Y-77732000D01*
X141136952Y-77684380D01*
X141898857Y-78589142D02*
X141946476Y-78636761D01*
X141898857Y-78684380D01*
X141851238Y-78636761D01*
X141898857Y-78589142D01*
X141898857Y-78684380D01*
X142327428Y-77779619D02*
X142375047Y-77732000D01*
X142470285Y-77684380D01*
X142708380Y-77684380D01*
X142803619Y-77732000D01*
X142851238Y-77779619D01*
X142898857Y-77874857D01*
X142898857Y-77970095D01*
X142851238Y-78112952D01*
X142279809Y-78684380D01*
X142898857Y-78684380D01*
X143279809Y-77779619D02*
X143327428Y-77732000D01*
X143422666Y-77684380D01*
X143660761Y-77684380D01*
X143756000Y-77732000D01*
X143803619Y-77779619D01*
X143851238Y-77874857D01*
X143851238Y-77970095D01*
X143803619Y-78112952D01*
X143232190Y-78684380D01*
X143851238Y-78684380D01*
X144708380Y-78017714D02*
X144708380Y-78684380D01*
X144279809Y-78017714D02*
X144279809Y-78541523D01*
X144327428Y-78636761D01*
X144422666Y-78684380D01*
X144565523Y-78684380D01*
X144660761Y-78636761D01*
X144708380Y-78589142D01*
X145517904Y-78160571D02*
X145184571Y-78160571D01*
X145184571Y-78684380D02*
X145184571Y-77684380D01*
X145660761Y-77684380D01*
X107561238Y-75652380D02*
X107370761Y-75652380D01*
X107275523Y-75700000D01*
X107227904Y-75747619D01*
X107132666Y-75890476D01*
X107085047Y-76080952D01*
X107085047Y-76461904D01*
X107132666Y-76557142D01*
X107180285Y-76604761D01*
X107275523Y-76652380D01*
X107466000Y-76652380D01*
X107561238Y-76604761D01*
X107608857Y-76557142D01*
X107656476Y-76461904D01*
X107656476Y-76223809D01*
X107608857Y-76128571D01*
X107561238Y-76080952D01*
X107466000Y-76033333D01*
X107275523Y-76033333D01*
X107180285Y-76080952D01*
X107132666Y-76128571D01*
X107085047Y-76223809D01*
X108085047Y-76557142D02*
X108132666Y-76604761D01*
X108085047Y-76652380D01*
X108037428Y-76604761D01*
X108085047Y-76557142D01*
X108085047Y-76652380D01*
X108704095Y-76080952D02*
X108608857Y-76033333D01*
X108561238Y-75985714D01*
X108513619Y-75890476D01*
X108513619Y-75842857D01*
X108561238Y-75747619D01*
X108608857Y-75700000D01*
X108704095Y-75652380D01*
X108894571Y-75652380D01*
X108989809Y-75700000D01*
X109037428Y-75747619D01*
X109085047Y-75842857D01*
X109085047Y-75890476D01*
X109037428Y-75985714D01*
X108989809Y-76033333D01*
X108894571Y-76080952D01*
X108704095Y-76080952D01*
X108608857Y-76128571D01*
X108561238Y-76176190D01*
X108513619Y-76271428D01*
X108513619Y-76461904D01*
X108561238Y-76557142D01*
X108608857Y-76604761D01*
X108704095Y-76652380D01*
X108894571Y-76652380D01*
X108989809Y-76604761D01*
X109037428Y-76557142D01*
X109085047Y-76461904D01*
X109085047Y-76271428D01*
X109037428Y-76176190D01*
X108989809Y-76128571D01*
X108894571Y-76080952D01*
X109942190Y-75985714D02*
X109942190Y-76652380D01*
X109513619Y-75985714D02*
X109513619Y-76509523D01*
X109561238Y-76604761D01*
X109656476Y-76652380D01*
X109799333Y-76652380D01*
X109894571Y-76604761D01*
X109942190Y-76557142D01*
X110751714Y-76128571D02*
X110418380Y-76128571D01*
X110418380Y-76652380D02*
X110418380Y-75652380D01*
X110894571Y-75652380D01*
X127968476Y-28646380D02*
X127968476Y-27646380D01*
X128301809Y-28360666D01*
X128635142Y-27646380D01*
X128635142Y-28646380D01*
X129016095Y-27646380D02*
X129635142Y-27646380D01*
X129301809Y-28027333D01*
X129444666Y-28027333D01*
X129539904Y-28074952D01*
X129587523Y-28122571D01*
X129635142Y-28217809D01*
X129635142Y-28455904D01*
X129587523Y-28551142D01*
X129539904Y-28598761D01*
X129444666Y-28646380D01*
X129158952Y-28646380D01*
X129063714Y-28598761D01*
X129016095Y-28551142D01*
X109172476Y-127960380D02*
X109172476Y-126960380D01*
X109505809Y-127674666D01*
X109839142Y-126960380D01*
X109839142Y-127960380D01*
X110220095Y-126960380D02*
X110839142Y-126960380D01*
X110505809Y-127341333D01*
X110648666Y-127341333D01*
X110743904Y-127388952D01*
X110791523Y-127436571D01*
X110839142Y-127531809D01*
X110839142Y-127769904D01*
X110791523Y-127865142D01*
X110743904Y-127912761D01*
X110648666Y-127960380D01*
X110362952Y-127960380D01*
X110267714Y-127912761D01*
X110220095Y-127865142D01*
X209248476Y-28900380D02*
X209248476Y-27900380D01*
X209581809Y-28614666D01*
X209915142Y-27900380D01*
X209915142Y-28900380D01*
X210296095Y-27900380D02*
X210915142Y-27900380D01*
X210581809Y-28281333D01*
X210724666Y-28281333D01*
X210819904Y-28328952D01*
X210867523Y-28376571D01*
X210915142Y-28471809D01*
X210915142Y-28709904D01*
X210867523Y-28805142D01*
X210819904Y-28852761D01*
X210724666Y-28900380D01*
X210438952Y-28900380D01*
X210343714Y-28852761D01*
X210296095Y-28805142D01*
X216868476Y-103322380D02*
X216868476Y-102322380D01*
X217201809Y-103036666D01*
X217535142Y-102322380D01*
X217535142Y-103322380D01*
X217916095Y-102322380D02*
X218535142Y-102322380D01*
X218201809Y-102703333D01*
X218344666Y-102703333D01*
X218439904Y-102750952D01*
X218487523Y-102798571D01*
X218535142Y-102893809D01*
X218535142Y-103131904D01*
X218487523Y-103227142D01*
X218439904Y-103274761D01*
X218344666Y-103322380D01*
X218058952Y-103322380D01*
X217963714Y-103274761D01*
X217916095Y-103227142D01*
X133953523Y-113593619D02*
X134001142Y-113546000D01*
X134096380Y-113498380D01*
X134334476Y-113498380D01*
X134429714Y-113546000D01*
X134477333Y-113593619D01*
X134524952Y-113688857D01*
X134524952Y-113784095D01*
X134477333Y-113926952D01*
X133905904Y-114498380D01*
X134524952Y-114498380D01*
X134953523Y-114403142D02*
X135001142Y-114450761D01*
X134953523Y-114498380D01*
X134905904Y-114450761D01*
X134953523Y-114403142D01*
X134953523Y-114498380D01*
X135620190Y-113498380D02*
X135715428Y-113498380D01*
X135810666Y-113546000D01*
X135858285Y-113593619D01*
X135905904Y-113688857D01*
X135953523Y-113879333D01*
X135953523Y-114117428D01*
X135905904Y-114307904D01*
X135858285Y-114403142D01*
X135810666Y-114450761D01*
X135715428Y-114498380D01*
X135620190Y-114498380D01*
X135524952Y-114450761D01*
X135477333Y-114403142D01*
X135429714Y-114307904D01*
X135382095Y-114117428D01*
X135382095Y-113879333D01*
X135429714Y-113688857D01*
X135477333Y-113593619D01*
X135524952Y-113546000D01*
X135620190Y-113498380D01*
X136382095Y-114498380D02*
X136382095Y-113831714D01*
X136382095Y-113926952D02*
X136429714Y-113879333D01*
X136524952Y-113831714D01*
X136667809Y-113831714D01*
X136763047Y-113879333D01*
X136810666Y-113974571D01*
X136810666Y-114498380D01*
X136810666Y-113974571D02*
X136858285Y-113879333D01*
X136953523Y-113831714D01*
X137096380Y-113831714D01*
X137191619Y-113879333D01*
X137239238Y-113974571D01*
X137239238Y-114498380D01*
X137715428Y-114498380D02*
X137715428Y-113498380D01*
X137715428Y-113974571D02*
X138286857Y-113974571D01*
X138286857Y-114498380D02*
X138286857Y-113498380D01*
X132445428Y-63206380D02*
X132540666Y-63206380D01*
X132635904Y-63254000D01*
X132683523Y-63301619D01*
X132731142Y-63396857D01*
X132778761Y-63587333D01*
X132778761Y-63825428D01*
X132731142Y-64015904D01*
X132683523Y-64111142D01*
X132635904Y-64158761D01*
X132540666Y-64206380D01*
X132445428Y-64206380D01*
X132350190Y-64158761D01*
X132302571Y-64111142D01*
X132254952Y-64015904D01*
X132207333Y-63825428D01*
X132207333Y-63587333D01*
X132254952Y-63396857D01*
X132302571Y-63301619D01*
X132350190Y-63254000D01*
X132445428Y-63206380D01*
X133207333Y-64111142D02*
X133254952Y-64158761D01*
X133207333Y-64206380D01*
X133159714Y-64158761D01*
X133207333Y-64111142D01*
X133207333Y-64206380D01*
X133588285Y-63206380D02*
X134207333Y-63206380D01*
X133874000Y-63587333D01*
X134016857Y-63587333D01*
X134112095Y-63634952D01*
X134159714Y-63682571D01*
X134207333Y-63777809D01*
X134207333Y-64015904D01*
X134159714Y-64111142D01*
X134112095Y-64158761D01*
X134016857Y-64206380D01*
X133731142Y-64206380D01*
X133635904Y-64158761D01*
X133588285Y-64111142D01*
X135112095Y-63206380D02*
X134635904Y-63206380D01*
X134588285Y-63682571D01*
X134635904Y-63634952D01*
X134731142Y-63587333D01*
X134969238Y-63587333D01*
X135064476Y-63634952D01*
X135112095Y-63682571D01*
X135159714Y-63777809D01*
X135159714Y-64015904D01*
X135112095Y-64111142D01*
X135064476Y-64158761D01*
X134969238Y-64206380D01*
X134731142Y-64206380D01*
X134635904Y-64158761D01*
X134588285Y-64111142D01*
X135588285Y-64206380D02*
X135588285Y-63539714D01*
X135588285Y-63634952D02*
X135635904Y-63587333D01*
X135731142Y-63539714D01*
X135874000Y-63539714D01*
X135969238Y-63587333D01*
X136016857Y-63682571D01*
X136016857Y-64206380D01*
X136016857Y-63682571D02*
X136064476Y-63587333D01*
X136159714Y-63539714D01*
X136302571Y-63539714D01*
X136397809Y-63587333D01*
X136445428Y-63682571D01*
X136445428Y-64206380D01*
X136921619Y-64206380D02*
X136921619Y-63206380D01*
X136921619Y-63682571D02*
X137493047Y-63682571D01*
X137493047Y-64206380D02*
X137493047Y-63206380D01*
X203311428Y-86828380D02*
X203406666Y-86828380D01*
X203501904Y-86876000D01*
X203549523Y-86923619D01*
X203597142Y-87018857D01*
X203644761Y-87209333D01*
X203644761Y-87447428D01*
X203597142Y-87637904D01*
X203549523Y-87733142D01*
X203501904Y-87780761D01*
X203406666Y-87828380D01*
X203311428Y-87828380D01*
X203216190Y-87780761D01*
X203168571Y-87733142D01*
X203120952Y-87637904D01*
X203073333Y-87447428D01*
X203073333Y-87209333D01*
X203120952Y-87018857D01*
X203168571Y-86923619D01*
X203216190Y-86876000D01*
X203311428Y-86828380D01*
X204073333Y-87733142D02*
X204120952Y-87780761D01*
X204073333Y-87828380D01*
X204025714Y-87780761D01*
X204073333Y-87733142D01*
X204073333Y-87828380D01*
X204978095Y-87161714D02*
X204978095Y-87828380D01*
X204740000Y-86780761D02*
X204501904Y-87495047D01*
X205120952Y-87495047D01*
X205692380Y-86828380D02*
X205787619Y-86828380D01*
X205882857Y-86876000D01*
X205930476Y-86923619D01*
X205978095Y-87018857D01*
X206025714Y-87209333D01*
X206025714Y-87447428D01*
X205978095Y-87637904D01*
X205930476Y-87733142D01*
X205882857Y-87780761D01*
X205787619Y-87828380D01*
X205692380Y-87828380D01*
X205597142Y-87780761D01*
X205549523Y-87733142D01*
X205501904Y-87637904D01*
X205454285Y-87447428D01*
X205454285Y-87209333D01*
X205501904Y-87018857D01*
X205549523Y-86923619D01*
X205597142Y-86876000D01*
X205692380Y-86828380D01*
X206454285Y-87828380D02*
X206454285Y-87161714D01*
X206454285Y-87256952D02*
X206501904Y-87209333D01*
X206597142Y-87161714D01*
X206740000Y-87161714D01*
X206835238Y-87209333D01*
X206882857Y-87304571D01*
X206882857Y-87828380D01*
X206882857Y-87304571D02*
X206930476Y-87209333D01*
X207025714Y-87161714D01*
X207168571Y-87161714D01*
X207263809Y-87209333D01*
X207311428Y-87304571D01*
X207311428Y-87828380D01*
X207787619Y-87828380D02*
X207787619Y-86828380D01*
X207787619Y-87304571D02*
X208359047Y-87304571D01*
X208359047Y-87828380D02*
X208359047Y-86828380D01*
X196310476Y-62634761D02*
X196453333Y-62682380D01*
X196691428Y-62682380D01*
X196786666Y-62634761D01*
X196834285Y-62587142D01*
X196881904Y-62491904D01*
X196881904Y-62396666D01*
X196834285Y-62301428D01*
X196786666Y-62253809D01*
X196691428Y-62206190D01*
X196500952Y-62158571D01*
X196405714Y-62110952D01*
X196358095Y-62063333D01*
X196310476Y-61968095D01*
X196310476Y-61872857D01*
X196358095Y-61777619D01*
X196405714Y-61730000D01*
X196500952Y-61682380D01*
X196739047Y-61682380D01*
X196881904Y-61730000D01*
X197739047Y-62015714D02*
X197739047Y-62682380D01*
X197310476Y-62015714D02*
X197310476Y-62539523D01*
X197358095Y-62634761D01*
X197453333Y-62682380D01*
X197596190Y-62682380D01*
X197691428Y-62634761D01*
X197739047Y-62587142D01*
X198215238Y-62682380D02*
X198215238Y-61682380D01*
X198215238Y-62063333D02*
X198310476Y-62015714D01*
X198500952Y-62015714D01*
X198596190Y-62063333D01*
X198643809Y-62110952D01*
X198691428Y-62206190D01*
X198691428Y-62491904D01*
X198643809Y-62587142D01*
X198596190Y-62634761D01*
X198500952Y-62682380D01*
X198310476Y-62682380D01*
X198215238Y-62634761D01*
X199120000Y-62301428D02*
X199881904Y-62301428D01*
X196310476Y-80414761D02*
X196453333Y-80462380D01*
X196691428Y-80462380D01*
X196786666Y-80414761D01*
X196834285Y-80367142D01*
X196881904Y-80271904D01*
X196881904Y-80176666D01*
X196834285Y-80081428D01*
X196786666Y-80033809D01*
X196691428Y-79986190D01*
X196500952Y-79938571D01*
X196405714Y-79890952D01*
X196358095Y-79843333D01*
X196310476Y-79748095D01*
X196310476Y-79652857D01*
X196358095Y-79557619D01*
X196405714Y-79510000D01*
X196500952Y-79462380D01*
X196739047Y-79462380D01*
X196881904Y-79510000D01*
X197739047Y-79795714D02*
X197739047Y-80462380D01*
X197310476Y-79795714D02*
X197310476Y-80319523D01*
X197358095Y-80414761D01*
X197453333Y-80462380D01*
X197596190Y-80462380D01*
X197691428Y-80414761D01*
X197739047Y-80367142D01*
X198215238Y-80462380D02*
X198215238Y-79462380D01*
X198215238Y-79843333D02*
X198310476Y-79795714D01*
X198500952Y-79795714D01*
X198596190Y-79843333D01*
X198643809Y-79890952D01*
X198691428Y-79986190D01*
X198691428Y-80271904D01*
X198643809Y-80367142D01*
X198596190Y-80414761D01*
X198500952Y-80462380D01*
X198310476Y-80462380D01*
X198215238Y-80414761D01*
X199120000Y-80081428D02*
X199881904Y-80081428D01*
X199500952Y-80462380D02*
X199500952Y-79700476D01*
X196691428Y-54062380D02*
X197262857Y-54062380D01*
X196977142Y-55062380D02*
X196977142Y-54062380D01*
X197500952Y-54395714D02*
X197691428Y-55062380D01*
X197881904Y-54586190D01*
X198072380Y-55062380D01*
X198262857Y-54395714D01*
X198643809Y-54681428D02*
X199405714Y-54681428D01*
X196691428Y-36282380D02*
X197262857Y-36282380D01*
X196977142Y-37282380D02*
X196977142Y-36282380D01*
X197500952Y-36615714D02*
X197691428Y-37282380D01*
X197881904Y-36806190D01*
X198072380Y-37282380D01*
X198262857Y-36615714D01*
X198643809Y-36901428D02*
X199405714Y-36901428D01*
X199024761Y-37282380D02*
X199024761Y-36520476D01*
X114173142Y-96972380D02*
X114173142Y-95972380D01*
X114649333Y-96972380D02*
X114649333Y-95972380D01*
X115220761Y-96972380D01*
X115220761Y-95972380D01*
X115696952Y-96591428D02*
X116458857Y-96591428D01*
X114173142Y-81478380D02*
X114173142Y-80478380D01*
X114649333Y-81478380D02*
X114649333Y-80478380D01*
X115220761Y-81478380D01*
X115220761Y-80478380D01*
X115696952Y-81097428D02*
X116458857Y-81097428D01*
X116077904Y-81478380D02*
X116077904Y-80716476D01*
X168862571Y-82351619D02*
X168910190Y-82304000D01*
X169005428Y-82256380D01*
X169243523Y-82256380D01*
X169338761Y-82304000D01*
X169386380Y-82351619D01*
X169434000Y-82446857D01*
X169434000Y-82542095D01*
X169386380Y-82684952D01*
X168814952Y-83256380D01*
X169434000Y-83256380D01*
X169862571Y-83161142D02*
X169910190Y-83208761D01*
X169862571Y-83256380D01*
X169814952Y-83208761D01*
X169862571Y-83161142D01*
X169862571Y-83256380D01*
X170767333Y-82589714D02*
X170767333Y-83256380D01*
X170529238Y-82208761D02*
X170291142Y-82923047D01*
X170910190Y-82923047D01*
X171243523Y-83256380D02*
X171481619Y-83256380D01*
X171481619Y-83065904D01*
X171386380Y-83018285D01*
X171291142Y-82923047D01*
X171243523Y-82780190D01*
X171243523Y-82542095D01*
X171291142Y-82399238D01*
X171386380Y-82304000D01*
X171529238Y-82256380D01*
X171719714Y-82256380D01*
X171862571Y-82304000D01*
X171957809Y-82399238D01*
X172005428Y-82542095D01*
X172005428Y-82780190D01*
X171957809Y-82923047D01*
X171862571Y-83018285D01*
X171767333Y-83065904D01*
X171767333Y-83256380D01*
X172005428Y-83256380D01*
X183038857Y-82351619D02*
X183086476Y-82304000D01*
X183181714Y-82256380D01*
X183419809Y-82256380D01*
X183515047Y-82304000D01*
X183562666Y-82351619D01*
X183610285Y-82446857D01*
X183610285Y-82542095D01*
X183562666Y-82684952D01*
X182991238Y-83256380D01*
X183610285Y-83256380D01*
X183991238Y-83256380D02*
X184229333Y-83256380D01*
X184229333Y-83065904D01*
X184134095Y-83018285D01*
X184038857Y-82923047D01*
X183991238Y-82780190D01*
X183991238Y-82542095D01*
X184038857Y-82399238D01*
X184134095Y-82304000D01*
X184276952Y-82256380D01*
X184467428Y-82256380D01*
X184610285Y-82304000D01*
X184705523Y-82399238D01*
X184753142Y-82542095D01*
X184753142Y-82780190D01*
X184705523Y-82923047D01*
X184610285Y-83018285D01*
X184515047Y-83065904D01*
X184515047Y-83256380D01*
X184753142Y-83256380D01*
X156432380Y-82256380D02*
X155956190Y-82256380D01*
X155908571Y-82732571D01*
X155956190Y-82684952D01*
X156051428Y-82637333D01*
X156289523Y-82637333D01*
X156384761Y-82684952D01*
X156432380Y-82732571D01*
X156480000Y-82827809D01*
X156480000Y-83065904D01*
X156432380Y-83161142D01*
X156384761Y-83208761D01*
X156289523Y-83256380D01*
X156051428Y-83256380D01*
X155956190Y-83208761D01*
X155908571Y-83161142D01*
X156908571Y-83161142D02*
X156956190Y-83208761D01*
X156908571Y-83256380D01*
X156860952Y-83208761D01*
X156908571Y-83161142D01*
X156908571Y-83256380D01*
X157908571Y-83256380D02*
X157337142Y-83256380D01*
X157622857Y-83256380D02*
X157622857Y-82256380D01*
X157527619Y-82399238D01*
X157432380Y-82494476D01*
X157337142Y-82542095D01*
X158289523Y-83256380D02*
X158527619Y-83256380D01*
X158527619Y-83065904D01*
X158432380Y-83018285D01*
X158337142Y-82923047D01*
X158289523Y-82780190D01*
X158289523Y-82542095D01*
X158337142Y-82399238D01*
X158432380Y-82304000D01*
X158575238Y-82256380D01*
X158765714Y-82256380D01*
X158908571Y-82304000D01*
X159003809Y-82399238D01*
X159051428Y-82542095D01*
X159051428Y-82780190D01*
X159003809Y-82923047D01*
X158908571Y-83018285D01*
X158813333Y-83065904D01*
X158813333Y-83256380D01*
X159051428Y-83256380D01*
M02*
