G04 #@! TF.GenerationSoftware,KiCad,Pcbnew,(5.1.4)-1*
G04 #@! TF.CreationDate,2019-10-17T19:09:16-07:00*
G04 #@! TF.ProjectId,amiga crossover,616d6967-6120-4637-926f-73736f766572,0.2*
G04 #@! TF.SameCoordinates,Original*
G04 #@! TF.FileFunction,Copper,L2,Bot*
G04 #@! TF.FilePolarity,Positive*
%FSLAX46Y46*%
G04 Gerber Fmt 4.6, Leading zero omitted, Abs format (unit mm)*
G04 Created by KiCad (PCBNEW (5.1.4)-1) date 2019-10-17 19:09:16*
%MOMM*%
%LPD*%
G04 APERTURE LIST*
%ADD10O,2.800000X2.800000*%
%ADD11C,2.800000*%
%ADD12O,2.400000X2.400000*%
%ADD13C,2.400000*%
%ADD14C,2.600000*%
%ADD15C,3.000000*%
%ADD16C,3.800000*%
%ADD17C,5.000000*%
%ADD18C,3.500000*%
%ADD19C,5.000000*%
%ADD20C,3.000000*%
%ADD21C,1.000000*%
%ADD22C,0.254000*%
G04 APERTURE END LIST*
D10*
X218878000Y-122174000D03*
D11*
X166878000Y-122174000D03*
D12*
X149460000Y-83566000D03*
D13*
X124460000Y-83566000D03*
D10*
X114300000Y-76130000D03*
D11*
X114300000Y-24130000D03*
D14*
X129844800Y-103886000D03*
X111963200Y-113741200D03*
D15*
X147370800Y-45364400D03*
X130911600Y-45415200D03*
D16*
X187452000Y-88188800D03*
X187452000Y-105664000D03*
D17*
X198120000Y-66040000D03*
X198120000Y-76200000D03*
X198120000Y-50800000D03*
X198120000Y-40640000D03*
X111760000Y-93980000D03*
X111760000Y-83820000D03*
D12*
X170434000Y-24130000D03*
D13*
X170434000Y-80010000D03*
D12*
X183642000Y-24130000D03*
D13*
X183642000Y-80010000D03*
D12*
X157480000Y-24384000D03*
D13*
X157480000Y-80264000D03*
D18*
X128905000Y-50800000D03*
X149098000Y-50800000D03*
X205740000Y-38100000D03*
X205740000Y-53340000D03*
X205740000Y-63500000D03*
X205740000Y-78740000D03*
X106680000Y-81280000D03*
X106680000Y-96520000D03*
X192532000Y-86614000D03*
X192786000Y-106934000D03*
X156718000Y-96774000D03*
X142748000Y-107442000D03*
X128524000Y-117983000D03*
X111125000Y-122047000D03*
X142748000Y-119507000D03*
X157099000Y-130556000D03*
D19*
X139192000Y-88138000D02*
X139192000Y-46228000D01*
X133350000Y-93980000D02*
X139192000Y-88138000D01*
D20*
X140055600Y-45364400D02*
X139192000Y-46228000D01*
D19*
X147370800Y-45364400D02*
X140055600Y-45364400D01*
X111760000Y-93980000D02*
X133350000Y-93980000D01*
X170434000Y-24130000D02*
X166370000Y-24130000D01*
X147370800Y-43129200D02*
X147370800Y-44929999D01*
X166370000Y-24130000D02*
X147370800Y-43129200D01*
D21*
X157734000Y-80010000D02*
X157480000Y-80264000D01*
D20*
X170434000Y-80010000D02*
X157734000Y-80010000D01*
X170688000Y-40640000D02*
X170434000Y-40894000D01*
D19*
X170434000Y-40894000D02*
X170434000Y-80010000D01*
X198120000Y-40640000D02*
X170688000Y-40640000D01*
D22*
G36*
X173863000Y-26613217D02*
G01*
X149775317Y-48165354D01*
X149758480Y-48183694D01*
X149745544Y-48204966D01*
X149737006Y-48228352D01*
X149733000Y-48260000D01*
X149733000Y-48494584D01*
X149332902Y-48415000D01*
X148863098Y-48415000D01*
X148402321Y-48506654D01*
X147968279Y-48686440D01*
X147577651Y-48947450D01*
X147245450Y-49279651D01*
X146984440Y-49670279D01*
X146804654Y-50104321D01*
X146713000Y-50565098D01*
X146713000Y-51034902D01*
X146804654Y-51495679D01*
X146984440Y-51929721D01*
X147245450Y-52320349D01*
X147577651Y-52652550D01*
X147968279Y-52913560D01*
X148402321Y-53093346D01*
X148863098Y-53185000D01*
X149332902Y-53185000D01*
X149733000Y-53105416D01*
X149733000Y-81749010D01*
X149550139Y-81731000D01*
X149369861Y-81731000D01*
X149100277Y-81757552D01*
X148754378Y-81862479D01*
X148435596Y-82032871D01*
X148156181Y-82262181D01*
X147926871Y-82541596D01*
X147756479Y-82860378D01*
X147651552Y-83206277D01*
X147616122Y-83566000D01*
X147651552Y-83925723D01*
X147756479Y-84271622D01*
X147926871Y-84590404D01*
X148156181Y-84869819D01*
X148435596Y-85099129D01*
X148754378Y-85269521D01*
X149100277Y-85374448D01*
X149369861Y-85401000D01*
X149550139Y-85401000D01*
X149733000Y-85382990D01*
X149733000Y-98933000D01*
X109347000Y-98933000D01*
X109347000Y-96183148D01*
X109736457Y-96183148D01*
X110012627Y-96601118D01*
X110557557Y-96891649D01*
X111148696Y-97070287D01*
X111763328Y-97130168D01*
X112377831Y-97068990D01*
X112968592Y-96889103D01*
X113507373Y-96601118D01*
X113783543Y-96183148D01*
X111760000Y-94159605D01*
X109736457Y-96183148D01*
X109347000Y-96183148D01*
X109347000Y-95864885D01*
X109556852Y-96003543D01*
X111580395Y-93980000D01*
X111939605Y-93980000D01*
X113963148Y-96003543D01*
X114381118Y-95727373D01*
X114671649Y-95182443D01*
X114850287Y-94591304D01*
X114910168Y-93976672D01*
X114848990Y-93362169D01*
X114669103Y-92771408D01*
X114381118Y-92232627D01*
X113963148Y-91956457D01*
X111939605Y-93980000D01*
X111580395Y-93980000D01*
X109556852Y-91956457D01*
X109347000Y-92095115D01*
X109347000Y-91776852D01*
X109736457Y-91776852D01*
X111760000Y-93800395D01*
X113783543Y-91776852D01*
X113507373Y-91358882D01*
X112962443Y-91068351D01*
X112371304Y-90889713D01*
X111756672Y-90829832D01*
X111142169Y-90891010D01*
X110551408Y-91070897D01*
X110012627Y-91358882D01*
X109736457Y-91776852D01*
X109347000Y-91776852D01*
X109347000Y-85840560D01*
X109761554Y-86255114D01*
X110275021Y-86598201D01*
X110845554Y-86834524D01*
X111451229Y-86955000D01*
X112068771Y-86955000D01*
X112674446Y-86834524D01*
X113244979Y-86598201D01*
X113758446Y-86255114D01*
X114195114Y-85818446D01*
X114538201Y-85304979D01*
X114774524Y-84734446D01*
X114895000Y-84128771D01*
X114895000Y-83511229D01*
X114869945Y-83385268D01*
X122625000Y-83385268D01*
X122625000Y-83746732D01*
X122695518Y-84101250D01*
X122833844Y-84435199D01*
X123034662Y-84735744D01*
X123290256Y-84991338D01*
X123590801Y-85192156D01*
X123924750Y-85330482D01*
X124279268Y-85401000D01*
X124640732Y-85401000D01*
X124995250Y-85330482D01*
X125329199Y-85192156D01*
X125629744Y-84991338D01*
X125885338Y-84735744D01*
X126086156Y-84435199D01*
X126224482Y-84101250D01*
X126295000Y-83746732D01*
X126295000Y-83385268D01*
X126224482Y-83030750D01*
X126086156Y-82696801D01*
X125885338Y-82396256D01*
X125629744Y-82140662D01*
X125329199Y-81939844D01*
X124995250Y-81801518D01*
X124640732Y-81731000D01*
X124279268Y-81731000D01*
X123924750Y-81801518D01*
X123590801Y-81939844D01*
X123290256Y-82140662D01*
X123034662Y-82396256D01*
X122833844Y-82696801D01*
X122695518Y-83030750D01*
X122625000Y-83385268D01*
X114869945Y-83385268D01*
X114774524Y-82905554D01*
X114538201Y-82335021D01*
X114195114Y-81821554D01*
X113758446Y-81384886D01*
X113244979Y-81041799D01*
X112674446Y-80805476D01*
X112068771Y-80685000D01*
X111451229Y-80685000D01*
X110845554Y-80805476D01*
X110275021Y-81041799D01*
X109761554Y-81384886D01*
X109347000Y-81799440D01*
X109347000Y-76130000D01*
X112255154Y-76130000D01*
X112294445Y-76528930D01*
X112410809Y-76912529D01*
X112599773Y-77266056D01*
X112854076Y-77575924D01*
X113163944Y-77830227D01*
X113517471Y-78019191D01*
X113901070Y-78135555D01*
X114200031Y-78165000D01*
X114399969Y-78165000D01*
X114698930Y-78135555D01*
X115082529Y-78019191D01*
X115436056Y-77830227D01*
X115745924Y-77575924D01*
X116000227Y-77266056D01*
X116189191Y-76912529D01*
X116305555Y-76528930D01*
X116344846Y-76130000D01*
X116305555Y-75731070D01*
X116189191Y-75347471D01*
X116000227Y-74993944D01*
X115745924Y-74684076D01*
X115436056Y-74429773D01*
X115082529Y-74240809D01*
X114698930Y-74124445D01*
X114399969Y-74095000D01*
X114200031Y-74095000D01*
X113901070Y-74124445D01*
X113517471Y-74240809D01*
X113163944Y-74429773D01*
X112854076Y-74684076D01*
X112599773Y-74993944D01*
X112410809Y-75347471D01*
X112294445Y-75731070D01*
X112255154Y-76130000D01*
X109347000Y-76130000D01*
X109347000Y-50927000D01*
X126520000Y-50927000D01*
X126520000Y-51034902D01*
X126611654Y-51495679D01*
X126791440Y-51929721D01*
X127052450Y-52320349D01*
X127384651Y-52652550D01*
X127775279Y-52913560D01*
X128209321Y-53093346D01*
X128670098Y-53185000D01*
X129139902Y-53185000D01*
X129600679Y-53093346D01*
X130034721Y-52913560D01*
X130425349Y-52652550D01*
X130757550Y-52320349D01*
X131018560Y-51929721D01*
X131198346Y-51495679D01*
X131290000Y-51034902D01*
X131290000Y-50927000D01*
X138430000Y-50927000D01*
X138454776Y-50924560D01*
X138478601Y-50917333D01*
X138500557Y-50905597D01*
X138519803Y-50889803D01*
X138535597Y-50870557D01*
X138547333Y-50848601D01*
X138554560Y-50824776D01*
X138557000Y-50800000D01*
X138557000Y-46856053D01*
X146058752Y-46856053D01*
X146214762Y-47171614D01*
X146589545Y-47362420D01*
X146994351Y-47476444D01*
X147413624Y-47509302D01*
X147831251Y-47459734D01*
X148231183Y-47329643D01*
X148526838Y-47171614D01*
X148682848Y-46856053D01*
X147370800Y-45544005D01*
X146058752Y-46856053D01*
X138557000Y-46856053D01*
X138557000Y-45407224D01*
X145225898Y-45407224D01*
X145275466Y-45824851D01*
X145405557Y-46224783D01*
X145563586Y-46520438D01*
X145879147Y-46676448D01*
X147191195Y-45364400D01*
X147550405Y-45364400D01*
X148862453Y-46676448D01*
X149178014Y-46520438D01*
X149368820Y-46145655D01*
X149482844Y-45740849D01*
X149515702Y-45321576D01*
X149466134Y-44903949D01*
X149336043Y-44504017D01*
X149178014Y-44208362D01*
X148862453Y-44052352D01*
X147550405Y-45364400D01*
X147191195Y-45364400D01*
X145879147Y-44052352D01*
X145563586Y-44208362D01*
X145372780Y-44583145D01*
X145258756Y-44987951D01*
X145225898Y-45407224D01*
X138557000Y-45407224D01*
X138557000Y-43872747D01*
X146058752Y-43872747D01*
X147370800Y-45184795D01*
X148682848Y-43872747D01*
X148526838Y-43557186D01*
X148152055Y-43366380D01*
X147747249Y-43252356D01*
X147327976Y-43219498D01*
X146910349Y-43269066D01*
X146510417Y-43399157D01*
X146214762Y-43557186D01*
X146058752Y-43872747D01*
X138557000Y-43872747D01*
X138557000Y-43307000D01*
X144780000Y-43307000D01*
X144804776Y-43304560D01*
X144828601Y-43297333D01*
X144850557Y-43285597D01*
X144869803Y-43269803D01*
X163597800Y-24541806D01*
X168645801Y-24541806D01*
X168760500Y-24882754D01*
X168939511Y-25194774D01*
X169175954Y-25465875D01*
X169460743Y-25685639D01*
X169782934Y-25845621D01*
X170022195Y-25918195D01*
X170307000Y-25801432D01*
X170307000Y-24257000D01*
X170561000Y-24257000D01*
X170561000Y-25801432D01*
X170845805Y-25918195D01*
X171085066Y-25845621D01*
X171407257Y-25685639D01*
X171692046Y-25465875D01*
X171928489Y-25194774D01*
X172107500Y-24882754D01*
X172222199Y-24541806D01*
X172105854Y-24257000D01*
X170561000Y-24257000D01*
X170307000Y-24257000D01*
X168762146Y-24257000D01*
X168645801Y-24541806D01*
X163597800Y-24541806D01*
X164421412Y-23718194D01*
X168645801Y-23718194D01*
X168762146Y-24003000D01*
X170307000Y-24003000D01*
X170307000Y-22458568D01*
X170561000Y-22458568D01*
X170561000Y-24003000D01*
X172105854Y-24003000D01*
X172222199Y-23718194D01*
X172107500Y-23377246D01*
X171928489Y-23065226D01*
X171692046Y-22794125D01*
X171407257Y-22574361D01*
X171085066Y-22414379D01*
X170845805Y-22341805D01*
X170561000Y-22458568D01*
X170307000Y-22458568D01*
X170022195Y-22341805D01*
X169782934Y-22414379D01*
X169460743Y-22574361D01*
X169175954Y-22794125D01*
X168939511Y-23065226D01*
X168760500Y-23377246D01*
X168645801Y-23718194D01*
X164421412Y-23718194D01*
X166270606Y-21869000D01*
X173863000Y-21869000D01*
X173863000Y-26613217D01*
X173863000Y-26613217D01*
G37*
X173863000Y-26613217D02*
X149775317Y-48165354D01*
X149758480Y-48183694D01*
X149745544Y-48204966D01*
X149737006Y-48228352D01*
X149733000Y-48260000D01*
X149733000Y-48494584D01*
X149332902Y-48415000D01*
X148863098Y-48415000D01*
X148402321Y-48506654D01*
X147968279Y-48686440D01*
X147577651Y-48947450D01*
X147245450Y-49279651D01*
X146984440Y-49670279D01*
X146804654Y-50104321D01*
X146713000Y-50565098D01*
X146713000Y-51034902D01*
X146804654Y-51495679D01*
X146984440Y-51929721D01*
X147245450Y-52320349D01*
X147577651Y-52652550D01*
X147968279Y-52913560D01*
X148402321Y-53093346D01*
X148863098Y-53185000D01*
X149332902Y-53185000D01*
X149733000Y-53105416D01*
X149733000Y-81749010D01*
X149550139Y-81731000D01*
X149369861Y-81731000D01*
X149100277Y-81757552D01*
X148754378Y-81862479D01*
X148435596Y-82032871D01*
X148156181Y-82262181D01*
X147926871Y-82541596D01*
X147756479Y-82860378D01*
X147651552Y-83206277D01*
X147616122Y-83566000D01*
X147651552Y-83925723D01*
X147756479Y-84271622D01*
X147926871Y-84590404D01*
X148156181Y-84869819D01*
X148435596Y-85099129D01*
X148754378Y-85269521D01*
X149100277Y-85374448D01*
X149369861Y-85401000D01*
X149550139Y-85401000D01*
X149733000Y-85382990D01*
X149733000Y-98933000D01*
X109347000Y-98933000D01*
X109347000Y-96183148D01*
X109736457Y-96183148D01*
X110012627Y-96601118D01*
X110557557Y-96891649D01*
X111148696Y-97070287D01*
X111763328Y-97130168D01*
X112377831Y-97068990D01*
X112968592Y-96889103D01*
X113507373Y-96601118D01*
X113783543Y-96183148D01*
X111760000Y-94159605D01*
X109736457Y-96183148D01*
X109347000Y-96183148D01*
X109347000Y-95864885D01*
X109556852Y-96003543D01*
X111580395Y-93980000D01*
X111939605Y-93980000D01*
X113963148Y-96003543D01*
X114381118Y-95727373D01*
X114671649Y-95182443D01*
X114850287Y-94591304D01*
X114910168Y-93976672D01*
X114848990Y-93362169D01*
X114669103Y-92771408D01*
X114381118Y-92232627D01*
X113963148Y-91956457D01*
X111939605Y-93980000D01*
X111580395Y-93980000D01*
X109556852Y-91956457D01*
X109347000Y-92095115D01*
X109347000Y-91776852D01*
X109736457Y-91776852D01*
X111760000Y-93800395D01*
X113783543Y-91776852D01*
X113507373Y-91358882D01*
X112962443Y-91068351D01*
X112371304Y-90889713D01*
X111756672Y-90829832D01*
X111142169Y-90891010D01*
X110551408Y-91070897D01*
X110012627Y-91358882D01*
X109736457Y-91776852D01*
X109347000Y-91776852D01*
X109347000Y-85840560D01*
X109761554Y-86255114D01*
X110275021Y-86598201D01*
X110845554Y-86834524D01*
X111451229Y-86955000D01*
X112068771Y-86955000D01*
X112674446Y-86834524D01*
X113244979Y-86598201D01*
X113758446Y-86255114D01*
X114195114Y-85818446D01*
X114538201Y-85304979D01*
X114774524Y-84734446D01*
X114895000Y-84128771D01*
X114895000Y-83511229D01*
X114869945Y-83385268D01*
X122625000Y-83385268D01*
X122625000Y-83746732D01*
X122695518Y-84101250D01*
X122833844Y-84435199D01*
X123034662Y-84735744D01*
X123290256Y-84991338D01*
X123590801Y-85192156D01*
X123924750Y-85330482D01*
X124279268Y-85401000D01*
X124640732Y-85401000D01*
X124995250Y-85330482D01*
X125329199Y-85192156D01*
X125629744Y-84991338D01*
X125885338Y-84735744D01*
X126086156Y-84435199D01*
X126224482Y-84101250D01*
X126295000Y-83746732D01*
X126295000Y-83385268D01*
X126224482Y-83030750D01*
X126086156Y-82696801D01*
X125885338Y-82396256D01*
X125629744Y-82140662D01*
X125329199Y-81939844D01*
X124995250Y-81801518D01*
X124640732Y-81731000D01*
X124279268Y-81731000D01*
X123924750Y-81801518D01*
X123590801Y-81939844D01*
X123290256Y-82140662D01*
X123034662Y-82396256D01*
X122833844Y-82696801D01*
X122695518Y-83030750D01*
X122625000Y-83385268D01*
X114869945Y-83385268D01*
X114774524Y-82905554D01*
X114538201Y-82335021D01*
X114195114Y-81821554D01*
X113758446Y-81384886D01*
X113244979Y-81041799D01*
X112674446Y-80805476D01*
X112068771Y-80685000D01*
X111451229Y-80685000D01*
X110845554Y-80805476D01*
X110275021Y-81041799D01*
X109761554Y-81384886D01*
X109347000Y-81799440D01*
X109347000Y-76130000D01*
X112255154Y-76130000D01*
X112294445Y-76528930D01*
X112410809Y-76912529D01*
X112599773Y-77266056D01*
X112854076Y-77575924D01*
X113163944Y-77830227D01*
X113517471Y-78019191D01*
X113901070Y-78135555D01*
X114200031Y-78165000D01*
X114399969Y-78165000D01*
X114698930Y-78135555D01*
X115082529Y-78019191D01*
X115436056Y-77830227D01*
X115745924Y-77575924D01*
X116000227Y-77266056D01*
X116189191Y-76912529D01*
X116305555Y-76528930D01*
X116344846Y-76130000D01*
X116305555Y-75731070D01*
X116189191Y-75347471D01*
X116000227Y-74993944D01*
X115745924Y-74684076D01*
X115436056Y-74429773D01*
X115082529Y-74240809D01*
X114698930Y-74124445D01*
X114399969Y-74095000D01*
X114200031Y-74095000D01*
X113901070Y-74124445D01*
X113517471Y-74240809D01*
X113163944Y-74429773D01*
X112854076Y-74684076D01*
X112599773Y-74993944D01*
X112410809Y-75347471D01*
X112294445Y-75731070D01*
X112255154Y-76130000D01*
X109347000Y-76130000D01*
X109347000Y-50927000D01*
X126520000Y-50927000D01*
X126520000Y-51034902D01*
X126611654Y-51495679D01*
X126791440Y-51929721D01*
X127052450Y-52320349D01*
X127384651Y-52652550D01*
X127775279Y-52913560D01*
X128209321Y-53093346D01*
X128670098Y-53185000D01*
X129139902Y-53185000D01*
X129600679Y-53093346D01*
X130034721Y-52913560D01*
X130425349Y-52652550D01*
X130757550Y-52320349D01*
X131018560Y-51929721D01*
X131198346Y-51495679D01*
X131290000Y-51034902D01*
X131290000Y-50927000D01*
X138430000Y-50927000D01*
X138454776Y-50924560D01*
X138478601Y-50917333D01*
X138500557Y-50905597D01*
X138519803Y-50889803D01*
X138535597Y-50870557D01*
X138547333Y-50848601D01*
X138554560Y-50824776D01*
X138557000Y-50800000D01*
X138557000Y-46856053D01*
X146058752Y-46856053D01*
X146214762Y-47171614D01*
X146589545Y-47362420D01*
X146994351Y-47476444D01*
X147413624Y-47509302D01*
X147831251Y-47459734D01*
X148231183Y-47329643D01*
X148526838Y-47171614D01*
X148682848Y-46856053D01*
X147370800Y-45544005D01*
X146058752Y-46856053D01*
X138557000Y-46856053D01*
X138557000Y-45407224D01*
X145225898Y-45407224D01*
X145275466Y-45824851D01*
X145405557Y-46224783D01*
X145563586Y-46520438D01*
X145879147Y-46676448D01*
X147191195Y-45364400D01*
X147550405Y-45364400D01*
X148862453Y-46676448D01*
X149178014Y-46520438D01*
X149368820Y-46145655D01*
X149482844Y-45740849D01*
X149515702Y-45321576D01*
X149466134Y-44903949D01*
X149336043Y-44504017D01*
X149178014Y-44208362D01*
X148862453Y-44052352D01*
X147550405Y-45364400D01*
X147191195Y-45364400D01*
X145879147Y-44052352D01*
X145563586Y-44208362D01*
X145372780Y-44583145D01*
X145258756Y-44987951D01*
X145225898Y-45407224D01*
X138557000Y-45407224D01*
X138557000Y-43872747D01*
X146058752Y-43872747D01*
X147370800Y-45184795D01*
X148682848Y-43872747D01*
X148526838Y-43557186D01*
X148152055Y-43366380D01*
X147747249Y-43252356D01*
X147327976Y-43219498D01*
X146910349Y-43269066D01*
X146510417Y-43399157D01*
X146214762Y-43557186D01*
X146058752Y-43872747D01*
X138557000Y-43872747D01*
X138557000Y-43307000D01*
X144780000Y-43307000D01*
X144804776Y-43304560D01*
X144828601Y-43297333D01*
X144850557Y-43285597D01*
X144869803Y-43269803D01*
X163597800Y-24541806D01*
X168645801Y-24541806D01*
X168760500Y-24882754D01*
X168939511Y-25194774D01*
X169175954Y-25465875D01*
X169460743Y-25685639D01*
X169782934Y-25845621D01*
X170022195Y-25918195D01*
X170307000Y-25801432D01*
X170307000Y-24257000D01*
X170561000Y-24257000D01*
X170561000Y-25801432D01*
X170845805Y-25918195D01*
X171085066Y-25845621D01*
X171407257Y-25685639D01*
X171692046Y-25465875D01*
X171928489Y-25194774D01*
X172107500Y-24882754D01*
X172222199Y-24541806D01*
X172105854Y-24257000D01*
X170561000Y-24257000D01*
X170307000Y-24257000D01*
X168762146Y-24257000D01*
X168645801Y-24541806D01*
X163597800Y-24541806D01*
X164421412Y-23718194D01*
X168645801Y-23718194D01*
X168762146Y-24003000D01*
X170307000Y-24003000D01*
X170307000Y-22458568D01*
X170561000Y-22458568D01*
X170561000Y-24003000D01*
X172105854Y-24003000D01*
X172222199Y-23718194D01*
X172107500Y-23377246D01*
X171928489Y-23065226D01*
X171692046Y-22794125D01*
X171407257Y-22574361D01*
X171085066Y-22414379D01*
X170845805Y-22341805D01*
X170561000Y-22458568D01*
X170307000Y-22458568D01*
X170022195Y-22341805D01*
X169782934Y-22414379D01*
X169460743Y-22574361D01*
X169175954Y-22794125D01*
X168939511Y-23065226D01*
X168760500Y-23377246D01*
X168645801Y-23718194D01*
X164421412Y-23718194D01*
X166270606Y-21869000D01*
X173863000Y-21869000D01*
X173863000Y-26613217D01*
G36*
X176403000Y-82423000D02*
G01*
X153797000Y-82423000D01*
X153797000Y-81541980D01*
X156381626Y-81541980D01*
X156501514Y-81826836D01*
X156825210Y-81987699D01*
X157174069Y-82082322D01*
X157534684Y-82107067D01*
X157893198Y-82060985D01*
X158235833Y-81945846D01*
X158458486Y-81826836D01*
X158578374Y-81541980D01*
X157480000Y-80443605D01*
X156381626Y-81541980D01*
X153797000Y-81541980D01*
X153797000Y-80318684D01*
X155636933Y-80318684D01*
X155683015Y-80677198D01*
X155798154Y-81019833D01*
X155917164Y-81242486D01*
X156202020Y-81362374D01*
X157300395Y-80264000D01*
X157659605Y-80264000D01*
X158757980Y-81362374D01*
X158934741Y-81287980D01*
X169335626Y-81287980D01*
X169455514Y-81572836D01*
X169779210Y-81733699D01*
X170128069Y-81828322D01*
X170488684Y-81853067D01*
X170847198Y-81806985D01*
X171189833Y-81691846D01*
X171412486Y-81572836D01*
X171532374Y-81287980D01*
X170434000Y-80189605D01*
X169335626Y-81287980D01*
X158934741Y-81287980D01*
X159042836Y-81242486D01*
X159203699Y-80918790D01*
X159298322Y-80569931D01*
X159323067Y-80209316D01*
X159304477Y-80064684D01*
X168590933Y-80064684D01*
X168637015Y-80423198D01*
X168752154Y-80765833D01*
X168871164Y-80988486D01*
X169156020Y-81108374D01*
X170254395Y-80010000D01*
X170613605Y-80010000D01*
X171711980Y-81108374D01*
X171996836Y-80988486D01*
X172157699Y-80664790D01*
X172252322Y-80315931D01*
X172277067Y-79955316D01*
X172230985Y-79596802D01*
X172115846Y-79254167D01*
X171996836Y-79031514D01*
X171711980Y-78911626D01*
X170613605Y-80010000D01*
X170254395Y-80010000D01*
X169156020Y-78911626D01*
X168871164Y-79031514D01*
X168710301Y-79355210D01*
X168615678Y-79704069D01*
X168590933Y-80064684D01*
X159304477Y-80064684D01*
X159276985Y-79850802D01*
X159161846Y-79508167D01*
X159042836Y-79285514D01*
X158757980Y-79165626D01*
X157659605Y-80264000D01*
X157300395Y-80264000D01*
X156202020Y-79165626D01*
X155917164Y-79285514D01*
X155756301Y-79609210D01*
X155661678Y-79958069D01*
X155636933Y-80318684D01*
X153797000Y-80318684D01*
X153797000Y-78986020D01*
X156381626Y-78986020D01*
X157480000Y-80084395D01*
X158578374Y-78986020D01*
X158471473Y-78732020D01*
X169335626Y-78732020D01*
X170434000Y-79830395D01*
X171532374Y-78732020D01*
X171412486Y-78447164D01*
X171088790Y-78286301D01*
X170739931Y-78191678D01*
X170379316Y-78166933D01*
X170020802Y-78213015D01*
X169678167Y-78328154D01*
X169455514Y-78447164D01*
X169335626Y-78732020D01*
X158471473Y-78732020D01*
X158458486Y-78701164D01*
X158134790Y-78540301D01*
X157785931Y-78445678D01*
X157425316Y-78420933D01*
X157066802Y-78467015D01*
X156724167Y-78582154D01*
X156501514Y-78701164D01*
X156381626Y-78986020D01*
X153797000Y-78986020D01*
X153797000Y-48330967D01*
X170215947Y-38227000D01*
X176403000Y-38227000D01*
X176403000Y-82423000D01*
X176403000Y-82423000D01*
G37*
X176403000Y-82423000D02*
X153797000Y-82423000D01*
X153797000Y-81541980D01*
X156381626Y-81541980D01*
X156501514Y-81826836D01*
X156825210Y-81987699D01*
X157174069Y-82082322D01*
X157534684Y-82107067D01*
X157893198Y-82060985D01*
X158235833Y-81945846D01*
X158458486Y-81826836D01*
X158578374Y-81541980D01*
X157480000Y-80443605D01*
X156381626Y-81541980D01*
X153797000Y-81541980D01*
X153797000Y-80318684D01*
X155636933Y-80318684D01*
X155683015Y-80677198D01*
X155798154Y-81019833D01*
X155917164Y-81242486D01*
X156202020Y-81362374D01*
X157300395Y-80264000D01*
X157659605Y-80264000D01*
X158757980Y-81362374D01*
X158934741Y-81287980D01*
X169335626Y-81287980D01*
X169455514Y-81572836D01*
X169779210Y-81733699D01*
X170128069Y-81828322D01*
X170488684Y-81853067D01*
X170847198Y-81806985D01*
X171189833Y-81691846D01*
X171412486Y-81572836D01*
X171532374Y-81287980D01*
X170434000Y-80189605D01*
X169335626Y-81287980D01*
X158934741Y-81287980D01*
X159042836Y-81242486D01*
X159203699Y-80918790D01*
X159298322Y-80569931D01*
X159323067Y-80209316D01*
X159304477Y-80064684D01*
X168590933Y-80064684D01*
X168637015Y-80423198D01*
X168752154Y-80765833D01*
X168871164Y-80988486D01*
X169156020Y-81108374D01*
X170254395Y-80010000D01*
X170613605Y-80010000D01*
X171711980Y-81108374D01*
X171996836Y-80988486D01*
X172157699Y-80664790D01*
X172252322Y-80315931D01*
X172277067Y-79955316D01*
X172230985Y-79596802D01*
X172115846Y-79254167D01*
X171996836Y-79031514D01*
X171711980Y-78911626D01*
X170613605Y-80010000D01*
X170254395Y-80010000D01*
X169156020Y-78911626D01*
X168871164Y-79031514D01*
X168710301Y-79355210D01*
X168615678Y-79704069D01*
X168590933Y-80064684D01*
X159304477Y-80064684D01*
X159276985Y-79850802D01*
X159161846Y-79508167D01*
X159042836Y-79285514D01*
X158757980Y-79165626D01*
X157659605Y-80264000D01*
X157300395Y-80264000D01*
X156202020Y-79165626D01*
X155917164Y-79285514D01*
X155756301Y-79609210D01*
X155661678Y-79958069D01*
X155636933Y-80318684D01*
X153797000Y-80318684D01*
X153797000Y-78986020D01*
X156381626Y-78986020D01*
X157480000Y-80084395D01*
X158578374Y-78986020D01*
X158471473Y-78732020D01*
X169335626Y-78732020D01*
X170434000Y-79830395D01*
X171532374Y-78732020D01*
X171412486Y-78447164D01*
X171088790Y-78286301D01*
X170739931Y-78191678D01*
X170379316Y-78166933D01*
X170020802Y-78213015D01*
X169678167Y-78328154D01*
X169455514Y-78447164D01*
X169335626Y-78732020D01*
X158471473Y-78732020D01*
X158458486Y-78701164D01*
X158134790Y-78540301D01*
X157785931Y-78445678D01*
X157425316Y-78420933D01*
X157066802Y-78467015D01*
X156724167Y-78582154D01*
X156501514Y-78701164D01*
X156381626Y-78986020D01*
X153797000Y-78986020D01*
X153797000Y-48330967D01*
X170215947Y-38227000D01*
X176403000Y-38227000D01*
X176403000Y-82423000D01*
M02*
