M48
; DRILL file {KiCad (5.1.4)-1} date 17-Oct-19 7:09:18 PM
; FORMAT={-:-/ absolute / inch / decimal}
; #@! TF.CreationDate,2019-10-17T19:09:18-07:00
; #@! TF.GenerationSoftware,Kicad,Pcbnew,(5.1.4)-1
; #@! TF.FileFunction,Plated,1,2,PTH
FMAT,2
INCH
T1C0.0472
T2C0.0512
T3C0.0551
T4C0.0591
T5C0.0748
T6C0.0984
%
G90
G05
T1
X4.9Y-3.29
X6.71Y-0.95
X6.71Y-3.15
X7.23Y-0.95
X7.23Y-3.15
X6.2Y-0.96
X6.2Y-3.16
X5.8843Y-3.29
T2
X4.408Y-4.478
X5.112Y-4.09
T3
X4.5Y-0.95
X4.5Y-2.9972
X6.57Y-4.81
X8.6172Y-4.81
T4
X5.154Y-1.788
X5.802Y-1.786
T5
X7.38Y-3.472
X7.38Y-4.16
T6
X4.2Y-3.2
X4.2Y-3.8
X4.375Y-4.805
X5.06Y-4.645
X5.075Y-2.0
X5.62Y-4.23
X5.62Y-4.705
X5.87Y-2.0
X6.17Y-3.81
X6.185Y-5.14
X7.58Y-3.41
X7.59Y-4.21
X8.1Y-1.5
X8.1Y-2.1
X8.1Y-2.5
X8.1Y-3.1
X7.8Y-2.0
X7.8Y-3.0
X7.8Y-1.6
X4.4Y-3.7
X7.8Y-2.6
X4.4Y-3.3
T0
M30
